<svg width="30" height="31" viewBox="0 0 30 31" fill="none" xmlns="http://www.w3.org/2000/svg">
<g clip-path="url(#clip0_27_52405)">
<path d="M15 30.5C23.2843 30.5 30 23.7843 30 15.5C30 7.21573 23.2843 0.5 15 0.5C6.71573 0.5 0 7.21573 0 15.5C0 23.7843 6.71573 30.5 15 30.5Z" fill="black"/>
<path d="M10.1536 16.5967L11.9332 21.5224C11.9332 21.5224 12.1557 21.9833 12.3939 21.9833C12.6322 21.9833 16.1758 18.2968 16.1758 18.2968L20.1164 10.6855L10.2171 15.3252L10.1536 16.5967Z" fill="#C8DAEA"/>
<path d="M12.5131 17.8599L12.1715 21.4906C12.1715 21.4906 12.0285 22.6031 13.1408 21.4906C14.253 20.3781 15.3176 19.5202 15.3176 19.5202" fill="#A9C6D8"/>
<path d="M10.1858 16.7724L6.52501 15.5796C6.52501 15.5796 6.08751 15.4021 6.22839 14.9996C6.25739 14.9166 6.31589 14.846 6.49089 14.7246C7.30201 14.1592 21.5041 9.05461 21.5041 9.05461C21.5041 9.05461 21.9051 8.91949 22.1416 9.00936C22.2001 9.02747 22.2528 9.0608 22.2942 9.10593C22.3356 9.15107 22.3643 9.20639 22.3773 9.26624C22.4028 9.37194 22.4135 9.4807 22.409 9.58936C22.4079 9.68336 22.3965 9.77049 22.3879 9.90711C22.3014 11.3027 19.7129 21.7187 19.7129 21.7187C19.7129 21.7187 19.558 22.3282 19.0031 22.3491C18.8668 22.3535 18.7309 22.3304 18.6037 22.2812C18.4764 22.232 18.3604 22.1576 18.2625 22.0626C17.1736 21.126 13.4101 18.5967 12.5785 18.0405C12.5598 18.0277 12.544 18.011 12.5322 17.9916C12.5204 17.9722 12.5129 17.9505 12.5103 17.928C12.4986 17.8694 12.5624 17.7967 12.5624 17.7967C12.5624 17.7967 19.1156 11.9717 19.29 11.3602C19.3035 11.3129 19.2525 11.2895 19.184 11.3102C18.7488 11.4704 11.2035 16.2352 10.3708 16.7611C10.3108 16.7792 10.2475 16.7831 10.1858 16.7724Z" fill="white"/>
</g>
<defs>
<clipPath id="clip0_27_52405">
<rect width="30" height="30" fill="white" transform="translate(0 0.5)"/>
</clipPath>
</defs>
</svg>
