<svg width="396" height="431" viewBox="0 0 396 431" fill="none" xmlns="http://www.w3.org/2000/svg">
<path d="M337.484 96.0512L371.204 154.456L337.484 212.861L270.043 212.861L236.323 154.456L270.043 96.0512L337.484 96.0512Z" fill="#FCE480"/>
<path opacity="0.4" d="M232.026 34.3822L265.747 92.7873L232.027 151.192L164.586 151.192L130.866 92.7874L164.586 34.3823L232.026 34.3822Z" fill="#FCE480"/>
<path opacity="0.8" d="M231.413 157.103L265.133 215.508L231.413 273.913L163.973 273.913L130.253 215.508L163.973 157.103L231.413 157.103Z" fill="#FCE480"/>
<path opacity="0.7" d="M231.413 279.824L265.133 338.229L231.413 396.634L163.973 396.634L130.253 338.229L163.973 279.824L231.413 279.824Z" fill="#FCE480"/>
<path opacity="0.5" d="M125.956 95.434L159.676 153.839L125.956 212.244L58.5158 212.244L24.7956 153.839L58.5158 95.434L125.956 95.434Z" fill="#FCE480"/>
<path opacity="0.6" d="M125.956 218.156L159.676 276.561L125.956 334.966L58.5159 334.966L24.7957 276.561L58.5159 218.156L125.956 218.156Z" fill="#FCE480"/>
<path d="M337.484 218.772L371.204 277.177L337.484 335.582L270.043 335.582L236.323 277.177L270.043 218.772L337.484 218.772Z" fill="#FCE480"/>
</svg>
