<svg width="12" height="15" viewBox="0 0 12 15" fill="none" xmlns="http://www.w3.org/2000/svg">
<path d="M6.41379 8.43508L6.52243 14.3431C6.17731 14.2821 5.88483 14.2511 5.645 14.2511C5.41687 14.2511 5.1244 14.2821 4.76758 14.3431L4.87621 8.43508C4.6531 8.05068 4.1843 7.22757 3.46816 5.96576C2.75201 4.70394 2.14952 3.66106 1.659 2.83628C1.16847 2.0115 0.664582 1.21263 0.146484 0.437988C0.469878 0.521552 0.770709 0.563334 1.04898 0.563334C1.28881 0.563334 1.59799 0.521552 1.97654 0.437988C2.32751 1.05636 2.69937 1.69563 3.09212 2.35579C3.48487 3.01594 3.95032 3.7864 4.48764 4.66633C5.02496 5.54626 5.41103 6.17884 5.645 6.56324C5.85141 6.22313 6.15642 5.72927 6.56003 5.07998C6.96365 4.43068 7.29122 3.90172 7.54191 3.49226C7.7926 3.08279 8.08508 2.59227 8.41933 2.02153C8.75359 1.45079 9.05191 0.92266 9.31347 0.437988C9.6143 0.515703 9.91263 0.554978 10.2076 0.554978C10.5193 0.554978 10.8368 0.515703 11.1602 0.437988C11.004 0.655255 10.8368 0.901769 10.6589 1.17753C10.4809 1.45329 10.343 1.67223 10.2452 1.83351C10.1474 1.99479 9.99034 2.26219 9.77307 2.63573C9.55581 3.00926 9.4196 3.24324 9.36361 3.33766C8.55053 4.71898 7.56698 6.41867 6.41379 8.43508Z" fill="#4A089F"/>
</svg>
