<svg width="17" height="19" viewBox="0 0 17 19" fill="none" xmlns="http://www.w3.org/2000/svg">
<path d="M0 3.81135C0 2.76847 0.85 1.9152 1.88889 1.9152H15.1111C15.6121 1.9152 16.0925 2.11497 16.4468 2.47057C16.801 2.82617 17 3.30846 17 3.81135V17.0844C17 17.5873 16.801 18.0696 16.4468 18.4252C16.0925 18.7808 15.6121 18.9806 15.1111 18.9806H1.88889C1.38792 18.9806 0.907478 18.7808 0.553243 18.4252C0.199007 18.0696 0 17.5873 0 17.0844V3.81135ZM1.88889 5.7075V17.0844H15.1111V5.7075H1.88889ZM3.77778 0.019043H5.66667V1.9152H3.77778V0.019043ZM11.3333 0.019043H13.2222V1.9152H11.3333V0.019043ZM3.77778 8.55173H5.66667V10.4479H3.77778V8.55173ZM3.77778 12.344H5.66667V14.2402H3.77778V12.344ZM7.55556 8.55173H9.44444V10.4479H7.55556V8.55173ZM7.55556 12.344H9.44444V14.2402H7.55556V12.344ZM11.3333 8.55173H13.2222V10.4479H11.3333V8.55173ZM11.3333 12.344H13.2222V14.2402H11.3333V12.344Z" fill="#E63946"/>
</svg>
