<svg width="206" height="35" viewBox="0 0 206 35" fill="none" xmlns="http://www.w3.org/2000/svg">
<g clip-path="url(#clip0)">
<path d="M8.81666 34.0396L16.7993 20.1523C17.0376 19.5537 17.2759 18.9551 17.2759 18.3565C17.2759 17.7579 17.1567 17.1593 16.9185 16.6804L13.4633 10.6945L0 34.0396H8.81666Z" fill="black"/>
<path d="M34.1942 26.4973H18.2289C17.6332 26.4973 17.0375 26.7368 16.4418 26.9762C15.9652 27.3353 15.4886 27.6945 15.1312 28.1734L11.676 34.1593H38.6026L34.1942 26.4973Z" fill="black"/>
<path d="M14.8931 8.1804L22.8757 22.0677C23.2331 22.5466 23.7097 23.0255 24.1863 23.3846C24.6629 23.7438 25.2586 23.8635 25.8543 23.8635H32.7647L19.3014 0.518433L14.8931 8.1804Z" fill="black"/>
<path d="M58.3807 16.3212C58.3807 15.9621 58.619 4.58885 58.619 4.58885L55.5212 16.3212H53.1383L50.0406 4.58885C50.0406 4.58885 50.2789 15.8424 50.2789 16.3212H47.6577V2.07477H51.4703L54.2106 12.61L56.9509 2.07477H60.7636V16.3212H58.3807Z" fill="black"/>
<path d="M75.7757 16.3212H73.1545V6.98322L66.8399 14.6452V16.3212H64.2188V2.07477H66.8399V11.2931L73.1545 3.63111V2.07477H75.7757V16.3212Z" fill="black"/>
<path d="M87.8093 16.3212V9.85646H81.733V16.3212H79.1118V2.07477H81.733V7.46209H87.8093V2.07477H90.4305V16.3212H87.8093Z" fill="black"/>
<path d="M104.966 2.07477V16.3212H102.345V4.46913H96.3875V16.3212H93.7664V2.07477H104.966Z" fill="black"/>
<path d="M113.783 2.07477C116.761 2.07477 118.787 3.87054 118.787 6.8635C118.787 9.4973 117.357 11.5325 113.544 11.5325H110.804V16.441H108.183V2.07477H113.783ZM110.923 9.25787H113.306C115.212 9.25787 116.166 8.41984 116.166 6.74378C116.166 4.46913 114.259 4.34942 113.068 4.34942H111.042V9.25787H110.923Z" fill="black"/>
<path d="M126.889 1.71564C131.178 1.71564 133.68 5.30719 133.68 9.13817C133.68 12.3706 131.893 16.6804 126.769 16.6804C122.599 16.6804 119.978 13.2086 119.978 9.25789C120.097 4.94803 122.838 1.71564 126.889 1.71564ZM127.008 14.1663C129.152 14.1663 131.059 12.4903 131.059 9.25789C131.059 6.74381 129.748 4.11 126.889 4.11C124.506 4.11 122.838 5.90578 122.838 9.13817C122.838 11.2931 123.91 14.1663 127.008 14.1663Z" fill="black"/>
<path d="M146.785 16.3212C146.785 15.9621 147.024 4.58885 147.024 4.58885L143.926 16.3212H141.543L138.445 4.58885C138.445 4.58885 138.684 15.8424 138.684 16.3212H136.062V2.07477H139.875L142.615 12.61L145.356 2.07477H149.168V16.3212H146.785Z" fill="black"/>
<path d="M157.985 4.46913V16.3212H155.364V4.46913H151.551V2.07477H162.036V4.46913H157.985Z" fill="black"/>
<path d="M170.138 1.71564C174.427 1.71564 176.929 5.30719 176.929 9.13817C176.929 12.3706 175.142 16.6804 170.019 16.6804C165.849 16.6804 163.227 13.2086 163.227 9.25789C163.227 4.94803 165.968 1.71564 170.138 1.71564ZM170.138 14.1663C172.282 14.1663 174.189 12.4903 174.189 9.25789C174.189 6.74381 172.878 4.11 170.019 4.11C167.636 4.11 165.968 5.90578 165.968 9.13817C165.968 11.2931 167.04 14.1663 170.138 14.1663Z" fill="black"/>
<path d="M185.031 2.07477C188.009 2.07477 190.035 3.87054 190.035 6.8635C190.035 9.4973 188.605 11.5325 184.793 11.5325H182.052V16.441H179.431V2.07477H185.031ZM182.171 9.25787H184.554C186.461 9.25787 187.414 8.41984 187.414 6.74378C187.414 4.46913 185.507 4.34942 184.316 4.34942H182.29V9.25787H182.171Z" fill="black"/>
<path d="M200.52 2.07477V4.46913H194.681V16.3212H192.06V2.07477H200.52Z" fill="black"/>
<path d="M53.2575 19.7931C56.2361 19.7931 58.2615 21.5889 58.2615 24.5818C58.2615 27.2156 56.8318 29.2508 53.0192 29.2508H50.2789V34.0396H47.6577V19.7931H53.2575ZM50.398 27.0959H52.7809C54.6872 27.0959 55.6404 26.2579 55.6404 24.5818C55.6404 22.3072 53.7341 22.1875 52.5426 22.1875H50.5172V27.0959H50.398Z" fill="black"/>
<path d="M66.6015 19.434C70.8907 19.434 73.3927 23.0255 73.3927 26.8565C73.3927 30.0889 71.6056 34.3988 66.4824 34.3988C62.3123 34.3988 59.6912 30.9269 59.6912 26.9762C59.8103 22.7861 62.5506 19.434 66.6015 19.434ZM66.7207 32.0044C68.8653 32.0044 70.7716 30.3283 70.7716 27.0959C70.7716 24.5818 69.461 21.948 66.6015 21.948C64.2186 21.948 62.5506 23.7438 62.5506 26.9762C62.5506 29.1311 63.6229 32.0044 66.7207 32.0044Z" fill="black"/>
<path d="M88.0475 30.0889C87.5709 31.2861 86.022 34.3988 81.9711 34.3988C78.6351 34.3988 75.2991 32.1241 75.2991 26.7368C75.2991 23.5044 77.0862 19.434 82.0903 19.434C85.7837 19.434 87.2135 21.8283 87.8092 23.8635L85.188 24.5818C85.0689 23.0255 83.7583 21.948 82.2094 21.948C79.9457 21.948 78.2777 23.7438 78.2777 26.8565C78.2777 28.772 79.1117 31.8847 82.2094 31.8847C83.9966 31.8847 85.188 30.448 85.6646 29.0114L88.0475 30.0889Z" fill="black"/>
<path d="M102.583 30.0889C102.107 31.2861 100.558 34.3988 96.3876 34.3988C93.0516 34.3988 89.7156 32.1241 89.7156 26.7368C89.7156 23.5044 91.5027 19.434 96.5068 19.434C100.2 19.434 101.63 21.8283 102.226 23.8635L99.6045 24.5818C99.4854 23.0255 98.1748 21.948 96.6259 21.948C94.3622 21.948 92.6942 23.7438 92.6942 26.8565C92.6942 28.772 93.5282 31.8847 96.6259 31.8847C98.4131 31.8847 99.6045 30.448 100.081 29.0114L102.583 30.0889Z" fill="black"/>
<path d="M116.404 34.0396H113.783V24.7016L107.468 32.3635V34.0396H104.847V19.7931H107.468V29.0114L113.783 21.3495V19.6734H116.404V34.0396Z" fill="black"/>
<path d="M131.297 34.0396H128.676V24.7016L122.361 32.3635V34.0396H119.74V19.7931H122.361V29.0114L128.676 21.3495V19.6734H131.297V34.0396Z" fill="black"/>
</g>
<defs>
<clipPath id="clip0">
<rect width="206" height="34" fill="white" transform="translate(0 0.518433)"/>
</clipPath>
</defs>
</svg>
