<svg width="15" height="14" viewBox="0 0 15 14" fill="none" xmlns="http://www.w3.org/2000/svg">
<path d="M9.44043 10.3466V6.6931C9.69995 6.87194 9.94334 7.03734 10.1854 7.20408C10.4032 7.35334 10.4395 7.35199 10.6641 7.20273C11.9079 6.37575 13.1518 5.55012 14.3956 4.72314C14.4332 4.69759 14.4722 4.67473 14.5274 4.64111C14.5314 4.69759 14.5381 4.74062 14.5381 4.7823C14.5381 6.37172 14.5395 7.96113 14.5381 9.55189C14.5381 10.0804 14.2705 10.3466 13.7448 10.3466C12.3624 10.3466 10.9801 10.3466 9.59776 10.3466C9.548 10.3466 9.49825 10.3466 9.44043 10.3466Z" fill="#DAA603"/>
<path d="M9.44973 2.98438H9.59092C11.0512 2.98438 12.5102 2.98438 13.9706 2.98438C14.2314 2.98438 14.4331 3.14439 14.5151 3.3945C14.5515 3.50477 14.5151 3.55855 14.4251 3.61772C13.2942 4.37478 12.166 5.13587 11.0365 5.89561C10.8751 6.00453 10.7124 6.10942 10.5537 6.22237C10.4677 6.28422 10.3897 6.28691 10.3009 6.22909C10.0427 6.06235 9.78052 5.90368 9.52369 5.73559C9.48066 5.70736 9.43628 5.64281 9.43628 5.59575C9.43225 4.74187 9.43359 3.888 9.43494 3.03413C9.43494 3.02337 9.44032 3.01396 9.44973 2.98438Z" fill="#DAA603"/>
<path d="M8.79227 13.8374C6.11501 13.2767 3.44851 12.7186 0.772589 12.1592V11.9831C0.772589 8.58777 0.773933 5.19245 0.768555 1.79713C0.768555 1.65594 0.806206 1.60753 0.943363 1.58198C3.08275 1.1732 5.22214 0.759037 7.36153 0.344876C7.83351 0.252092 8.3055 0.161999 8.79227 0.0678711V13.8374ZM6.65826 6.93919C6.65288 6.37981 6.57623 5.86345 6.29923 5.39416C6.07601 5.0163 5.7748 4.72988 5.34047 4.60617C4.49601 4.36547 3.6892 4.76081 3.29118 5.61468C3.03703 6.16197 2.9819 6.74287 3.03165 7.33722C3.07468 7.85223 3.22394 8.32825 3.55608 8.73569C4.21632 9.54519 5.41712 9.55057 6.08677 8.74645C6.52917 8.21395 6.65019 7.58061 6.65826 6.93919Z" fill="#DAA603"/>
<path d="M3.90042 6.95118C3.89907 6.55181 3.95286 6.16589 4.17876 5.82434C4.38719 5.50834 4.70319 5.37925 5.05146 5.46666C5.32174 5.53389 5.48579 5.72618 5.59471 5.96688C5.78028 6.37969 5.81255 6.81806 5.75742 7.25643C5.72649 7.49981 5.65657 7.74724 5.55841 7.9718C5.43066 8.26225 5.18459 8.42899 4.85648 8.43571C4.52569 8.44244 4.29575 8.27166 4.13573 7.99735C3.94613 7.67597 3.90042 7.31828 3.90042 6.95118Z" fill="#DAA603"/>
</svg>
