<svg width="14" height="17" viewBox="0 0 14 17" fill="none" xmlns="http://www.w3.org/2000/svg">
<path d="M11.0584 9.13469C11.0256 7.10326 12.7294 6.1203 12.7949 6.05477C11.8448 4.67864 10.3703 4.48205 9.84609 4.44928C8.60101 4.31822 7.3887 5.20288 6.76617 5.20288C6.14363 5.20288 5.16068 4.48205 4.11219 4.51481C2.73606 4.54758 1.49098 5.30117 0.77015 6.54625C-0.671516 9.00363 0.409734 12.6406 1.78587 14.6392C2.47394 15.6222 3.2603 16.7034 4.34155 16.6707C5.35727 16.6379 5.75045 16.0154 6.99552 16.0154C8.2406 16.0154 8.56825 16.6707 9.6495 16.6707C10.7635 16.6379 11.4516 15.6877 12.1069 14.7048C12.8932 13.558 13.1881 12.4767 13.2209 12.4112C13.1881 12.3784 11.0584 11.5921 11.0584 9.13469Z" fill="#606060"/>
<path d="M9.02722 3.13874C9.58423 2.45067 9.97741 1.50048 9.87911 0.550293C9.05998 0.583058 8.07703 1.07453 7.52002 1.7626C6.99578 2.35237 6.53707 3.33533 6.66813 4.25275C7.52002 4.35105 8.47021 3.82681 9.02722 3.13874Z" fill="#606060"/>
</svg>
