<svg width="285" height="85" viewBox="0 0 285 85" fill="none" xmlns="http://www.w3.org/2000/svg">
<path d="M3.70707 2.95584H3.19409V41.1907H41.9419V2.44287H3.19409V2.95584H3.70707V3.46882H40.9221V40.1647H4.22004V2.95584H3.70707V3.46882V2.95584Z" fill="#E83F41"/>
<path d="M44.1098 2.95584H43.5968V41.1907H82.3446V2.44287H43.5968V2.95584H44.1098V3.46882H81.3187V40.1647H44.6166V2.95584H44.1098V3.46882V2.95584Z" fill="#5B59A3"/>
<path d="M44.1098 42.9007H43.5968V81.1355H82.3446V42.3877H43.5968V42.9007H44.1098V43.4075H81.3187V80.1096H44.6166V42.9007H44.1098V43.4075V42.9007Z" fill="#D7C000"/>
<path d="M3.70707 42.9007H3.19409V81.1355H41.9419V42.3877H3.19409V42.9007H3.70707V43.4075H40.9221V80.1096H4.22004V42.9007H3.70707V43.4075V42.9007Z" fill="#009372"/>
<path d="M37.8381 37.7341H4.25053V3.46865H37.8686V37.7341M3.23069 37.7341H0.116211V0.012207H37.8381V2.45494H3.20016V37.7463" fill="#E83F42"/>
<path d="M4.22003 37.7342H3.2002V2.44287H37.8381V3.46881H4.25057V37.7342" fill="#E41520"/>
<path d="M85.7584 37.7341H82.3446V2.44273H48.0365V0H85.7584V37.7219M81.3187 37.7219H48.0365V3.46867H81.337V37.7341" fill="#5B59A3"/>
<path d="M82.3446 37.7342H81.3187V3.46882H48.0365V2.44287H82.3446V37.7342Z" fill="#3A348B"/>
<path d="M84.6834 84.2683H46.9615V81.1355H82.3445V46.5464H84.6834V84.2683ZM81.3369 80.1095H46.9615V46.522H81.3369V80.1095Z" fill="#D7C000"/>
<path d="M82.3445 81.1354H46.9615V80.1095H81.3185V46.5464H82.3445V81.1354Z" fill="#B09D1E"/>
<path d="M37.8381 84.2683H0.116211V46.5464H3.16962V81.1355H37.8075V84.2683M37.8075 80.1095H4.22V46.522H37.8381V80.1095" fill="#009473"/>
<path d="M37.8381 81.1354H3.19409V46.5464H4.22004V80.1095H37.8381V81.1354Z" fill="#007F4B"/>
<path d="M102.405 79.8286C102.463 79.8298 102.521 79.819 102.575 79.7969C102.628 79.7749 102.677 79.742 102.717 79.7003C102.76 79.657 102.793 79.6054 102.815 79.5487C102.837 79.492 102.847 79.4314 102.845 79.3706V72.0424L105.16 76.3721C105.217 76.484 105.296 76.5836 105.392 76.6652C105.499 76.7544 105.637 76.8001 105.776 76.7935H106.631C106.771 76.8001 106.908 76.7544 107.016 76.6652C107.108 76.58 107.186 76.4811 107.248 76.3721L109.563 72.0424V79.3706C109.56 79.4314 109.571 79.492 109.593 79.5487C109.615 79.6054 109.648 79.657 109.691 79.7003C109.73 79.7418 109.777 79.7746 109.83 79.7967C109.883 79.8188 109.939 79.8297 109.996 79.8286H111.828C111.889 79.8312 111.95 79.8211 112.007 79.799C112.063 79.7769 112.115 79.7432 112.158 79.7002C112.201 79.6571 112.235 79.6056 112.257 79.5489C112.279 79.4921 112.289 79.4314 112.286 79.3706V67.5416C112.289 67.4808 112.279 67.4201 112.257 67.3633C112.235 67.3066 112.201 67.2551 112.158 67.212C112.115 67.169 112.063 67.1353 112.007 67.1132C111.95 67.0911 111.889 67.081 111.828 67.0836H110.161C110.086 67.0778 110.011 67.0879 109.941 67.1132C109.87 67.1384 109.806 67.1783 109.752 67.2302C109.686 67.2957 109.628 67.3697 109.581 67.45L106.192 73.6179L102.845 67.45C102.786 67.3735 102.723 67.3001 102.656 67.2302C102.601 67.1789 102.537 67.1394 102.467 67.1142C102.396 67.089 102.321 67.0786 102.247 67.0836H100.549C100.431 67.0837 100.317 67.1297 100.231 67.2119C100.187 67.2539 100.151 67.3052 100.128 67.3621C100.105 67.419 100.094 67.4802 100.097 67.5416V79.3706C100.094 79.4319 100.105 79.4932 100.128 79.5501C100.151 79.607 100.187 79.6582 100.231 79.7003C100.317 79.7825 100.431 79.8285 100.549 79.8286H102.405ZM122.906 79.4622C123.683 79.1165 124.335 78.541 124.775 77.8133C125.257 76.969 125.509 76.0131 125.508 75.0408C125.532 74.5156 125.544 73.9966 125.544 73.4836C125.544 72.9706 125.532 72.4454 125.508 71.908C125.516 70.9387 125.263 69.985 124.775 69.1477C124.326 68.4088 123.664 67.8232 122.876 67.4684C121.982 67.0935 121.023 66.9004 120.054 66.9004C119.085 66.9004 118.126 67.0935 117.233 67.4684C116.447 67.8243 115.787 68.4097 115.34 69.1477C114.86 69.989 114.606 70.9397 114.601 71.908C114.601 72.4413 114.601 72.9665 114.601 73.4836C114.601 74.0006 114.601 74.5197 114.601 75.0408C114.599 76.0131 114.852 76.969 115.334 77.8133C115.774 78.5425 116.429 79.1182 117.208 79.4622C119.038 80.1869 121.076 80.1869 122.906 79.4622ZM118.314 77.0194C117.814 76.4513 117.553 75.7115 117.587 74.9553C117.587 74.4179 117.587 73.9172 117.587 73.453C117.587 72.9889 117.587 72.4943 117.587 71.9691C117.591 71.4344 117.712 70.9071 117.941 70.4241C118.131 70.0456 118.434 69.736 118.808 69.5386C119.198 69.3435 119.63 69.2471 120.066 69.2577C120.49 69.2518 120.909 69.3482 121.288 69.5386C121.658 69.7399 121.958 70.0486 122.149 70.4241C122.388 70.9035 122.507 71.4335 122.497 71.9691C122.521 72.4902 122.534 72.9848 122.534 73.453C122.534 73.9212 122.521 74.422 122.497 74.9553C122.52 75.33 122.469 75.7057 122.345 76.0602C122.221 76.4147 122.028 76.7408 121.776 77.0194C121.292 77.4376 120.673 77.6677 120.033 77.6677C119.393 77.6677 118.774 77.4376 118.289 77.0194H118.314ZM129.385 82.3812C129.448 82.3816 129.51 82.3694 129.568 82.3453C129.625 82.3212 129.678 82.2856 129.721 82.2408C129.765 82.2003 129.799 82.1511 129.822 82.0964C129.846 82.0416 129.857 81.9826 129.856 81.9232V79.8347H136.848V81.911C136.846 81.9711 136.857 82.0309 136.879 82.0868C136.901 82.1427 136.934 82.1936 136.976 82.2364C137.018 82.2791 137.069 82.3129 137.124 82.3357C137.18 82.3585 137.24 82.3699 137.3 82.369H139.285C139.346 82.3705 139.408 82.3587 139.465 82.3345C139.522 82.3102 139.573 82.2741 139.614 82.2285C139.694 82.1423 139.738 82.0286 139.736 81.911V77.6973C139.74 77.5757 139.696 77.4575 139.614 77.3675C139.571 77.3248 139.519 77.2913 139.463 77.2693C139.406 77.2472 139.345 77.237 139.285 77.2393H138.43V67.5416C138.432 67.4808 138.422 67.4201 138.4 67.3633C138.378 67.3066 138.344 67.2551 138.301 67.212C138.258 67.169 138.207 67.1353 138.15 67.1132C138.093 67.0911 138.032 67.081 137.972 67.0836H129.782C129.724 67.0824 129.667 67.0932 129.613 67.1153C129.56 67.1373 129.511 67.1702 129.471 67.2119C129.389 67.3019 129.345 67.4201 129.349 67.5416V71.2912C129.349 72.2011 129.318 73.0194 129.257 73.7339C129.212 74.3628 129.12 74.9874 128.982 75.6027C128.902 76.039 128.733 76.4545 128.488 76.824C128.407 76.9492 128.297 77.0526 128.167 77.1251C128.037 77.1975 127.891 77.2367 127.743 77.2393H127.401C127.343 77.2381 127.285 77.2489 127.232 77.2709C127.178 77.293 127.13 77.3259 127.089 77.3675C127.046 77.4108 127.013 77.4624 126.991 77.5191C126.969 77.5759 126.959 77.6365 126.961 77.6973V81.911C126.959 81.9718 126.969 82.0324 126.991 82.0891C127.013 82.1459 127.046 82.1975 127.089 82.2408C127.13 82.2824 127.178 82.3153 127.232 82.3374C127.285 82.3594 127.343 82.3702 127.401 82.369L129.385 82.3812ZM131.914 75.1202C132.09 73.9747 132.169 72.8164 132.152 71.6576V69.6973H135.535V77.2698H131.224C131.576 76.6073 131.81 75.888 131.914 75.1446V75.1202ZM146.454 79.8347C147.349 79.8623 148.239 79.6782 149.049 79.2973C149.714 78.9678 150.265 78.4467 150.631 77.8011C150.997 77.1424 151.182 76.3988 151.168 75.6454C151.217 75.0765 151.132 74.5041 150.92 73.974C150.708 73.4438 150.374 72.9706 149.947 72.592C148.943 71.8582 147.713 71.4995 146.472 71.5782H144.597V67.5416C144.6 67.4808 144.59 67.4202 144.567 67.3635C144.545 67.3068 144.512 67.2552 144.469 67.2119C144.427 67.1693 144.377 67.1359 144.321 67.1138C144.265 67.0918 144.205 67.0815 144.146 67.0836H142.161C142.1 67.081 142.039 67.0911 141.983 67.1132C141.926 67.1353 141.874 67.169 141.831 67.212C141.788 67.2551 141.755 67.3066 141.732 67.3633C141.71 67.4201 141.7 67.4808 141.703 67.5416V79.3706C141.7 79.4314 141.71 79.4921 141.732 79.5489C141.755 79.6056 141.788 79.6571 141.831 79.7002C141.874 79.7432 141.926 79.7769 141.983 79.799C142.039 79.8211 142.1 79.8312 142.161 79.8286L146.454 79.8347ZM144.579 73.8439H146.362C146.853 73.8109 147.337 73.9709 147.712 74.2897C147.878 74.4724 148.005 74.6866 148.085 74.9196C148.166 75.1525 148.199 75.3994 148.182 75.6454C148.201 76.1457 148.033 76.6352 147.712 77.0194C147.541 77.2033 147.331 77.3468 147.098 77.4398C146.864 77.5327 146.613 77.5727 146.362 77.5568H144.579V73.8439ZM155.156 79.8347C155.217 79.8369 155.278 79.8267 155.334 79.8047C155.391 79.7826 155.443 79.7492 155.486 79.7064C155.568 79.6165 155.612 79.4982 155.608 79.3767V67.5416C155.612 67.4201 155.568 67.3019 155.486 67.2119C155.443 67.1691 155.391 67.1357 155.334 67.1136C155.278 67.0916 155.217 67.0814 155.156 67.0836H153.098C153.037 67.0814 152.977 67.0916 152.92 67.1136C152.863 67.1357 152.812 67.1691 152.768 67.2119C152.687 67.3019 152.643 67.4201 152.646 67.5416V79.3706C152.643 79.4921 152.687 79.6103 152.768 79.7003C152.812 79.7431 152.863 79.7765 152.92 79.7986C152.977 79.8206 153.037 79.8308 153.098 79.8286L155.156 79.8347Z" fill="#1D1D1B"/>
<path d="M108.03 59.4744C108.089 59.4745 108.147 59.4627 108.201 59.4398C108.255 59.417 108.304 59.3835 108.345 59.3414C108.386 59.2992 108.418 59.2493 108.44 59.1945C108.461 59.1398 108.471 59.0813 108.47 59.0225V57.7279C110.302 57.7279 111.7 57.3309 112.689 56.5065C113.207 56.0618 113.624 55.5123 113.914 54.8943C114.203 54.2764 114.358 53.6041 114.369 52.9218C114.382 52.6961 114.382 52.4697 114.369 52.244C114.369 52.0669 114.369 51.8409 114.369 51.5783C114.355 50.6348 114.071 49.715 113.551 48.9279C113.037 48.2066 112.33 47.6455 111.511 47.3096C110.542 46.9168 109.503 46.7276 108.457 46.7539V45.6608C108.458 45.602 108.447 45.5437 108.425 45.4892C108.403 45.4347 108.37 45.3851 108.329 45.3432C108.29 45.2999 108.242 45.2654 108.188 45.2423C108.134 45.2191 108.076 45.2077 108.018 45.2089H106.021C105.959 45.2063 105.898 45.2169 105.841 45.2401C105.784 45.2633 105.733 45.2985 105.691 45.3432C105.65 45.3851 105.617 45.4347 105.595 45.4892C105.573 45.5437 105.562 45.602 105.563 45.6608V46.7539C104.518 46.7276 103.478 46.9168 102.509 47.3096C101.69 47.639 100.985 48.2017 100.482 48.9279C99.9673 49.7182 99.6819 50.6356 99.6575 51.5783C99.6575 51.676 99.6575 51.8104 99.6575 51.9875C99.6575 52.1646 99.6575 52.3356 99.6575 52.5065C99.65 52.6449 99.65 52.7835 99.6575 52.9218C99.6726 53.6039 99.8303 54.2752 100.121 54.8926C100.411 55.51 100.827 56.0598 101.343 56.5065C102.332 57.3126 103.731 57.7279 105.538 57.7279V59.0225C105.535 59.0825 105.545 59.1424 105.568 59.1982C105.59 59.254 105.623 59.3045 105.667 59.3462C105.71 59.3889 105.762 59.4224 105.818 59.4444C105.875 59.4665 105.936 59.4767 105.996 59.4744H108.03ZM103.493 54.7722C103.223 54.527 103.009 54.2267 102.866 53.8916C102.723 53.5565 102.653 53.1945 102.662 52.8302V51.6699C102.665 51.3051 102.743 50.9448 102.89 50.611C103.037 50.2771 103.25 49.9766 103.517 49.7279C104.118 49.2912 104.852 49.0755 105.593 49.1172V55.3829C104.844 55.4263 104.102 55.2106 103.493 54.7722ZM108.451 49.1172C109.195 49.0715 109.932 49.2876 110.534 49.7279C110.8 49.9769 111.012 50.2776 111.158 50.6115C111.304 50.9454 111.381 51.3055 111.383 51.6699C111.391 51.7878 111.391 51.9062 111.383 52.0241V52.4699C111.39 52.5899 111.39 52.7102 111.383 52.8302C111.397 53.1936 111.332 53.5557 111.192 53.8912C111.051 54.2267 110.839 54.5274 110.57 54.7722C109.955 55.2124 109.207 55.428 108.451 55.3829V49.1172ZM124.561 58.5279C125.339 58.1849 125.994 57.6115 126.436 56.8851C126.913 56.0368 127.163 55.0798 127.163 54.1065C127.187 53.5854 127.199 53.0663 127.199 52.5493C127.199 52.0323 127.187 51.5071 127.163 50.9737C127.17 50.0073 126.92 49.0563 126.436 48.2195C125.981 47.4823 125.318 46.8959 124.531 46.5341C123.646 46.1442 122.688 45.9524 121.721 45.9722C120.747 45.9518 119.78 46.1435 118.888 46.5341C118.103 46.8948 117.444 47.4817 116.995 48.2195C116.517 49.0591 116.265 50.0079 116.262 50.9737C116.262 51.5111 116.262 52.0363 116.262 52.5493C116.262 53.0623 116.262 53.5813 116.262 54.1065C116.258 55.0802 116.509 56.038 116.989 56.8851C117.429 57.6128 118.084 58.1866 118.863 58.5279C120.692 59.2607 122.733 59.2607 124.561 58.5279ZM119.975 56.0851C119.47 55.5193 119.207 54.7784 119.242 54.021C119.242 53.4877 119.242 52.9869 119.242 52.5188C119.242 52.0506 119.242 51.5559 119.242 51.0348C119.245 50.4993 119.368 49.9713 119.602 49.4898C119.79 49.1118 120.091 48.802 120.463 48.6043C120.855 48.4129 121.286 48.3166 121.721 48.3234C122.145 48.3203 122.563 48.4165 122.943 48.6043C123.315 48.8052 123.617 49.1139 123.81 49.4898C124.043 49.971 124.16 50.5001 124.152 51.0348C124.176 51.56 124.189 52.0546 124.189 52.5188C124.189 52.9829 124.176 53.4836 124.152 54.021C124.181 54.3918 124.135 54.7646 124.019 55.1179C123.903 55.4711 123.717 55.7978 123.474 56.079C122.99 56.4968 122.373 56.7266 121.734 56.7266C121.095 56.7266 120.477 56.4968 119.993 56.079L119.975 56.0851ZM131.987 58.9004C132.047 58.9025 132.107 58.8923 132.162 58.8702C132.218 58.8481 132.269 58.8147 132.311 58.7721C132.353 58.7288 132.387 58.6772 132.409 58.6205C132.431 58.5638 132.441 58.5032 132.439 58.4424V54.3325H134.882C135.753 54.3529 136.62 54.2036 137.434 53.8928C138.125 53.633 138.718 53.1658 139.132 52.5554C139.56 51.8727 139.773 51.0768 139.743 50.2714C139.77 49.4665 139.557 48.6716 139.132 47.9875C138.716 47.3699 138.125 46.8912 137.434 46.6135C136.622 46.2932 135.754 46.1395 134.882 46.1615H129.911C129.789 46.1581 129.671 46.2019 129.581 46.2837C129.538 46.327 129.505 46.3786 129.483 46.4353C129.461 46.492 129.45 46.5527 129.453 46.6135V58.4424C129.45 58.5032 129.46 58.5639 129.482 58.6207C129.504 58.6774 129.538 58.7289 129.581 58.772C129.624 58.8151 129.676 58.8487 129.732 58.8708C129.789 58.8929 129.85 58.903 129.911 58.9004H131.987ZM132.384 48.4333H134.79C135.063 48.4057 135.338 48.436 135.598 48.5223C135.858 48.6086 136.097 48.7489 136.298 48.9341C136.614 49.2947 136.78 49.7621 136.763 50.2409C136.781 50.493 136.744 50.746 136.654 50.9823C136.565 51.2186 136.424 51.4324 136.243 51.6088C135.832 51.9303 135.317 52.0909 134.796 52.0607H132.39V48.3966L132.384 48.4333ZM143.504 58.9004C144.059 58.9121 144.612 58.8442 145.147 58.6989C145.575 58.584 145.971 58.3754 146.308 58.0882C146.671 57.7569 146.978 57.3692 147.217 56.9401C147.541 56.384 147.827 55.8066 148.072 55.2119L151.736 46.8761L151.798 46.7173V46.5646C151.797 46.5152 151.787 46.4664 151.767 46.4212C151.747 46.3761 151.718 46.3355 151.682 46.302C151.645 46.2643 151.602 46.2345 151.553 46.2146C151.505 46.1946 151.453 46.1849 151.401 46.186H149.379C149.268 46.1849 149.158 46.2145 149.062 46.2715C148.966 46.3394 148.893 46.4354 148.854 46.5463L145.459 54.3447C145.289 54.7463 145.084 55.1324 144.848 55.4989C144.683 55.7661 144.457 55.9901 144.188 56.1523C143.921 56.2994 143.62 56.3731 143.315 56.3661H142.619C142.563 56.3653 142.507 56.3756 142.454 56.3966C142.402 56.4176 142.354 56.4487 142.314 56.4882C142.271 56.5315 142.237 56.5831 142.215 56.6398C142.193 56.6965 142.183 56.7572 142.185 56.818V58.4363C142.183 58.4971 142.193 58.5577 142.215 58.6144C142.237 58.6711 142.271 58.7227 142.314 58.766C142.353 58.8075 142.4 58.8403 142.453 58.8624C142.505 58.8845 142.562 58.8954 142.619 58.8943L143.504 58.9004ZM146.802 52.8363L143.486 46.4913C143.438 46.3853 143.367 46.2914 143.279 46.2165C143.19 46.1577 143.086 46.1278 142.979 46.131H140.848C140.794 46.1309 140.741 46.1417 140.692 46.1627C140.643 46.1837 140.598 46.2145 140.561 46.2531C140.522 46.2879 140.491 46.3302 140.469 46.3774C140.447 46.4246 140.434 46.4759 140.433 46.528C140.432 46.585 140.445 46.6415 140.469 46.6928L145.306 55.6516L146.802 52.8119V52.8363ZM155.449 58.9004C155.506 58.9008 155.563 58.8896 155.615 58.8675C155.668 58.8455 155.715 58.813 155.755 58.7721C155.798 58.7288 155.831 58.6772 155.853 58.6205C155.875 58.5638 155.885 58.5032 155.883 58.4424V51.1142L158.198 55.45C158.257 55.5587 158.336 55.6559 158.43 55.7371C158.537 55.8262 158.675 55.8719 158.814 55.8653H159.669C159.809 55.8719 159.946 55.8262 160.054 55.7371C160.148 55.6559 160.226 55.5587 160.286 55.45L162.601 51.1142V58.4424C162.598 58.5032 162.608 58.5638 162.631 58.6205C162.653 58.6772 162.686 58.7288 162.729 58.7721C162.768 58.813 162.816 58.8455 162.868 58.8675C162.921 58.8896 162.977 58.9008 163.034 58.9004H164.866C164.927 58.903 164.988 58.8929 165.044 58.8708C165.101 58.8487 165.153 58.8151 165.196 58.772C165.239 58.7289 165.273 58.6774 165.295 58.6207C165.317 58.5639 165.327 58.5032 165.324 58.4424V46.6074C165.326 46.5465 165.316 46.4859 165.294 46.4292C165.272 46.3725 165.239 46.3209 165.196 46.2776C165.106 46.1957 164.988 46.152 164.866 46.1555H163.175C163.1 46.1503 163.026 46.1601 162.956 46.1842C162.885 46.2084 162.821 46.2463 162.765 46.2959C162.699 46.3615 162.642 46.4354 162.594 46.5158L159.205 52.6897L155.883 46.4913C155.824 46.4148 155.761 46.3414 155.694 46.2715C155.638 46.2219 155.574 46.1839 155.503 46.1598C155.433 46.1357 155.359 46.1259 155.285 46.131H153.593C153.474 46.1303 153.358 46.1738 153.269 46.2531C153.225 46.2952 153.189 46.3465 153.166 46.4034C153.143 46.4603 153.132 46.5215 153.135 46.5829V58.4118C153.132 58.4732 153.143 58.5345 153.166 58.5914C153.189 58.6483 153.225 58.6995 153.269 58.7416C153.356 58.8247 153.473 58.8707 153.593 58.8698L155.449 58.9004Z" fill="#1D1D1B"/>
<path d="M102.357 37.9416C102.492 37.9508 102.626 37.9119 102.735 37.8317C102.811 37.7748 102.874 37.7018 102.918 37.618L108.506 29.8623V37.4897C108.503 37.5503 108.514 37.6107 108.537 37.6667C108.56 37.7226 108.596 37.7728 108.641 37.8134C108.726 37.8956 108.84 37.9416 108.958 37.9416H110.943C111.004 37.9439 111.064 37.9337 111.121 37.9116C111.178 37.8896 111.229 37.8561 111.273 37.8134C111.316 37.7717 111.35 37.7212 111.372 37.6654C111.394 37.6096 111.404 37.5497 111.401 37.4897V25.6791C111.403 25.6183 111.393 25.5576 111.371 25.5008C111.349 25.4441 111.315 25.3925 111.272 25.3495C111.229 25.3064 111.178 25.2728 111.121 25.2507C111.064 25.2286 111.004 25.2185 110.943 25.2211H109.16C109.034 25.2166 108.911 25.2507 108.805 25.3188C108.718 25.3836 108.642 25.4619 108.579 25.5509L102.992 33.5386V25.6791C102.994 25.6183 102.984 25.5576 102.962 25.5008C102.94 25.4441 102.906 25.3925 102.863 25.3495C102.82 25.3064 102.769 25.2728 102.712 25.2507C102.655 25.2286 102.595 25.2185 102.534 25.2211H100.549C100.431 25.2212 100.317 25.2672 100.231 25.3494C100.187 25.3914 100.151 25.4427 100.128 25.4996C100.105 25.5565 100.094 25.6177 100.097 25.6791V37.508C100.096 37.5668 100.107 37.6251 100.129 37.6796C100.151 37.7341 100.184 37.7837 100.225 37.8256C100.266 37.8699 100.317 37.9048 100.373 37.928C100.428 37.9512 100.489 37.9621 100.549 37.9599L102.357 37.9416ZM116.531 37.9416C116.591 37.9439 116.652 37.9337 116.709 37.9116C116.765 37.8896 116.817 37.8561 116.86 37.8134C116.904 37.7717 116.937 37.7212 116.959 37.6654C116.982 37.6096 116.991 37.5497 116.989 37.4897V32.8119H121.923V37.508C121.919 37.5683 121.929 37.6287 121.95 37.6851C121.971 37.7415 122.005 37.7928 122.047 37.8355C122.09 37.8782 122.141 37.9113 122.198 37.9328C122.254 37.9542 122.314 37.9635 122.375 37.9599H124.359C124.42 37.9622 124.481 37.952 124.538 37.9299C124.594 37.9079 124.646 37.8745 124.689 37.8317C124.731 37.7895 124.764 37.7388 124.785 37.683C124.806 37.6272 124.815 37.5676 124.811 37.508V25.6791C124.816 25.6184 124.807 25.5573 124.786 25.5002C124.765 25.443 124.732 25.391 124.689 25.3476C124.647 25.3042 124.595 25.2705 124.538 25.2487C124.481 25.2269 124.42 25.2175 124.359 25.2211H122.375C122.314 25.2189 122.253 25.2291 122.197 25.2511C122.14 25.2732 122.088 25.3066 122.045 25.3494C121.963 25.4393 121.919 25.5576 121.923 25.6791V30.2287H116.989V25.6791C116.991 25.6183 116.981 25.5576 116.959 25.5008C116.937 25.4441 116.903 25.3925 116.86 25.3495C116.817 25.3064 116.766 25.2728 116.709 25.2507C116.652 25.2286 116.591 25.2185 116.531 25.2211H114.546C114.485 25.2194 114.425 25.2301 114.369 25.2526C114.313 25.2751 114.263 25.3088 114.22 25.3518C114.178 25.3948 114.145 25.446 114.123 25.5023C114.101 25.5586 114.091 25.6188 114.094 25.6791V37.508C114.091 37.568 114.101 37.6279 114.123 37.6837C114.145 37.7396 114.179 37.79 114.222 37.8317C114.265 37.874 114.315 37.9072 114.371 37.9292C114.426 37.9513 114.486 37.9617 114.546 37.9599L116.531 37.9416ZM133.532 37.9416C134.371 37.9673 135.205 37.8067 135.975 37.4714C136.6 37.1902 137.126 36.7261 137.483 36.1401C137.834 35.5321 138.009 34.8388 137.99 34.1371C138.007 33.4985 137.818 32.8714 137.453 32.3478C137.149 31.8833 136.728 31.5081 136.231 31.2608C136.482 31.1331 136.713 30.9685 136.915 30.7722C137.172 30.5368 137.38 30.2523 137.526 29.9356C137.698 29.5649 137.784 29.1597 137.776 28.7509C137.789 28.096 137.629 27.4493 137.312 26.8761C136.976 26.3288 136.476 25.9014 135.883 25.6547C135.097 25.3352 134.252 25.1854 133.404 25.215H127.999C127.938 25.2127 127.878 25.223 127.821 25.245C127.764 25.2671 127.713 25.3005 127.669 25.3432C127.588 25.4332 127.544 25.5514 127.547 25.673V37.5019C127.544 37.5622 127.553 37.6225 127.574 37.679C127.596 37.7354 127.629 37.7867 127.672 37.8294C127.714 37.8721 127.766 37.9052 127.822 37.9267C127.879 37.9481 127.939 37.9574 127.999 37.9538L133.532 37.9416ZM130.405 32.4455H133.19C133.434 32.4302 133.679 32.4652 133.909 32.5482C134.139 32.6312 134.349 32.7604 134.527 32.9279C134.834 33.2478 135 33.676 134.991 34.1187C135.006 34.5703 134.841 35.0092 134.533 35.3401C134.358 35.5142 134.147 35.6489 133.916 35.7353C133.684 35.8216 133.437 35.8576 133.19 35.8409H130.405V32.4455ZM130.405 27.3341H133.025C133.49 27.2983 133.95 27.4451 134.307 27.7432C134.45 27.8838 134.561 28.0526 134.635 28.2387C134.709 28.4248 134.743 28.6242 134.735 28.8241C134.742 29.0268 134.708 29.2288 134.635 29.4178C134.561 29.6069 134.45 29.7789 134.307 29.9234C134.133 30.0765 133.93 30.1933 133.709 30.2667C133.489 30.3401 133.257 30.3687 133.025 30.3508H130.405V27.3341ZM149.007 37.9416C149.066 37.9434 149.126 37.9329 149.182 37.9109C149.237 37.8888 149.288 37.8557 149.33 37.8134C149.373 37.7717 149.407 37.7212 149.429 37.6654C149.452 37.6096 149.461 37.5497 149.459 37.4897V36.0485C149.46 35.9887 149.45 35.9292 149.428 35.8736C149.405 35.818 149.372 35.7675 149.33 35.7252C149.288 35.6829 149.237 35.6497 149.182 35.6276C149.126 35.6055 149.066 35.5949 149.007 35.5966H142.961V32.647H148.457C148.518 32.6493 148.578 32.6391 148.635 32.617C148.692 32.5949 148.743 32.5615 148.787 32.5188C148.828 32.4785 148.861 32.43 148.883 32.3764C148.905 32.3228 148.916 32.2653 148.915 32.2073V30.8638C148.918 30.803 148.908 30.7423 148.885 30.6855C148.863 30.6288 148.83 30.5773 148.787 30.5342C148.744 30.4911 148.692 30.4575 148.635 30.4354C148.579 30.4133 148.518 30.4032 148.457 30.4058H142.961V27.56H148.86C148.919 27.5634 148.977 27.5546 149.033 27.5343C149.088 27.5139 149.138 27.4824 149.181 27.4417C149.223 27.401 149.256 27.352 149.279 27.2978C149.302 27.2435 149.313 27.1852 149.312 27.1264V25.673C149.314 25.6122 149.304 25.5516 149.282 25.4949C149.26 25.4382 149.226 25.3866 149.184 25.3432C149.142 25.3007 149.091 25.2673 149.035 25.2452C148.98 25.2231 148.92 25.2129 148.86 25.215H140.616C140.555 25.2124 140.494 25.2225 140.438 25.2446C140.381 25.2667 140.329 25.3003 140.286 25.3434C140.243 25.3865 140.21 25.438 140.187 25.4947C140.165 25.5515 140.155 25.6122 140.158 25.673V37.5019C140.155 37.5619 140.165 37.6218 140.187 37.6776C140.209 37.7334 140.243 37.7839 140.286 37.8256C140.329 37.8683 140.381 37.9018 140.438 37.9238C140.494 37.9459 140.555 37.9561 140.616 37.9538L149.007 37.9416ZM158.906 37.8134C159.534 37.6312 160.121 37.3284 160.634 36.9218C161.112 36.5545 161.5 36.0843 161.771 35.5462C162.041 35.008 162.187 34.4157 162.197 33.8134C162.199 33.7619 162.19 33.7107 162.17 33.6632C162.15 33.6157 162.12 33.5732 162.081 33.5386C162.006 33.4664 161.905 33.4269 161.8 33.4287H159.724C159.6 33.4228 159.477 33.4594 159.376 33.5325C159.273 33.6331 159.205 33.7634 159.181 33.905C159.083 34.4932 158.759 35.0196 158.277 35.3707C157.795 35.6558 157.242 35.7977 156.683 35.7798C156.031 35.8183 155.391 35.5989 154.9 35.1691C154.406 34.6033 154.152 33.8673 154.191 33.1172C154.155 32.0709 154.155 31.0531 154.191 30.0638C154.153 29.3122 154.407 28.5749 154.9 28.0058C155.391 27.576 156.031 27.3567 156.683 27.3951C157.239 27.3764 157.789 27.5139 158.271 27.7921C158.752 28.1498 159.078 28.6788 159.181 29.2699C159.209 29.4065 159.277 29.5318 159.376 29.6302C159.475 29.7078 159.599 29.7469 159.724 29.7402H161.8C161.905 29.7419 162.006 29.7024 162.081 29.6302C162.119 29.5963 162.148 29.5548 162.168 29.5084C162.188 29.4621 162.198 29.412 162.197 29.3615C162.184 28.7525 162.036 28.1539 161.764 27.6089C161.488 27.0799 161.103 26.6157 160.634 26.2471C160.12 25.8428 159.533 25.5402 158.906 25.3555C158.185 25.1402 157.435 25.0352 156.683 25.044C155.69 25.0258 154.706 25.2346 153.807 25.6547C153.032 26.0157 152.383 26.6007 151.944 27.3341C151.477 28.1474 151.223 29.0652 151.205 30.0028C151.205 30.5218 151.205 31.0714 151.205 31.6394C151.205 32.2073 151.205 32.7447 151.205 33.2394C151.223 34.1811 151.473 35.104 151.932 35.9264C152.362 36.6544 153 37.2371 153.764 37.5996C154.675 38.0073 155.667 38.2035 156.665 38.1737C157.417 38.1825 158.166 38.0775 158.887 37.8622L158.906 37.8134ZM169.519 37.9416C169.579 37.9434 169.639 37.9329 169.695 37.9109C169.75 37.8888 169.801 37.8557 169.843 37.8134C169.886 37.7717 169.92 37.7212 169.942 37.6654C169.964 37.6096 169.974 37.5497 169.971 37.4897V27.7188H173.269C173.329 27.7206 173.388 27.7101 173.444 27.6881C173.5 27.666 173.55 27.6328 173.593 27.5906C173.634 27.5516 173.668 27.5043 173.69 27.4517C173.712 27.399 173.722 27.3423 173.721 27.2852V25.6486C173.723 25.5883 173.714 25.5281 173.692 25.4718C173.67 25.4155 173.637 25.3642 173.595 25.3213C173.552 25.2783 173.501 25.2445 173.445 25.2221C173.389 25.1996 173.329 25.1888 173.269 25.1906H163.73C163.672 25.1894 163.615 25.2002 163.561 25.2222C163.507 25.2443 163.459 25.2772 163.419 25.3188C163.376 25.3621 163.343 25.4137 163.321 25.4704C163.298 25.5272 163.288 25.5878 163.291 25.6486V27.2852C163.289 27.3423 163.3 27.399 163.322 27.4517C163.344 27.5043 163.377 27.5516 163.419 27.5906C163.459 27.6322 163.507 27.6651 163.561 27.6871C163.615 27.7092 163.672 27.72 163.73 27.7188H167.04V37.4897C167.037 37.5497 167.047 37.6096 167.069 37.6654C167.091 37.7212 167.125 37.7717 167.168 37.8134C167.212 37.8561 167.263 37.8896 167.32 37.9116C167.377 37.9337 167.437 37.9439 167.498 37.9416H169.519ZM177.727 37.9416C177.862 37.9519 177.997 37.9129 178.106 37.8317C178.182 37.7748 178.244 37.7018 178.289 37.618L183.877 29.8623V37.4897C183.875 37.5501 183.886 37.6102 183.909 37.666C183.932 37.7217 183.967 37.772 184.011 37.8134C184.098 37.8965 184.214 37.9425 184.335 37.9416H186.319C186.379 37.9434 186.439 37.9329 186.494 37.9109C186.55 37.8888 186.601 37.8557 186.643 37.8134C186.686 37.7717 186.72 37.7212 186.742 37.6654C186.764 37.6096 186.774 37.5497 186.771 37.4897V25.6791C186.774 25.6188 186.764 25.5586 186.742 25.5023C186.72 25.446 186.687 25.3948 186.645 25.3518C186.603 25.3088 186.552 25.2751 186.496 25.2526C186.44 25.2301 186.38 25.2194 186.319 25.2211H184.542C184.417 25.2166 184.293 25.2507 184.188 25.3188C184.101 25.3836 184.024 25.4619 183.962 25.5509L178.374 33.5386V25.6791C178.377 25.6188 178.367 25.5586 178.345 25.5023C178.324 25.446 178.29 25.3948 178.248 25.3518C178.206 25.3088 178.155 25.2751 178.099 25.2526C178.043 25.2301 177.983 25.2194 177.922 25.2211H175.938C175.817 25.2203 175.701 25.2662 175.614 25.3494C175.571 25.3924 175.536 25.4438 175.513 25.5004C175.49 25.5571 175.479 25.6179 175.48 25.6791V37.508C175.479 37.5668 175.49 37.6251 175.512 37.6796C175.534 37.7341 175.567 37.7837 175.608 37.8256C175.65 37.8704 175.701 37.9056 175.758 37.9288C175.815 37.9519 175.876 37.9626 175.938 37.9599L177.727 37.9416ZM201.031 40.5126C201.091 40.5147 201.15 40.5045 201.206 40.4824C201.262 40.4603 201.312 40.4269 201.354 40.3844C201.397 40.3411 201.431 40.2895 201.453 40.2327C201.475 40.176 201.485 40.1154 201.483 40.0546V35.8348C201.485 35.774 201.475 35.7133 201.453 35.6566C201.431 35.5999 201.397 35.5483 201.354 35.505C201.312 35.4624 201.262 35.429 201.206 35.407C201.15 35.3849 201.091 35.3746 201.031 35.3768H200.176V25.6791C200.178 25.6183 200.168 25.5576 200.146 25.5008C200.124 25.4441 200.09 25.3925 200.047 25.3495C200.004 25.3064 199.953 25.2728 199.896 25.2507C199.839 25.2286 199.779 25.2185 199.718 25.2211H197.733C197.673 25.2182 197.613 25.2281 197.557 25.2502C197.501 25.2724 197.451 25.3062 197.409 25.3494C197.367 25.3927 197.333 25.4443 197.311 25.501C197.289 25.5577 197.279 25.6183 197.281 25.6791V35.3768H192.359V25.6791C192.362 25.6188 192.352 25.5586 192.33 25.5023C192.308 25.446 192.275 25.3948 192.233 25.3518C192.19 25.3088 192.139 25.2751 192.083 25.2526C192.027 25.2301 191.967 25.2194 191.907 25.2211H189.922C189.862 25.2185 189.801 25.2286 189.744 25.2507C189.687 25.2728 189.636 25.3064 189.593 25.3495C189.55 25.3925 189.516 25.4441 189.494 25.5008C189.472 25.5576 189.462 25.6183 189.464 25.6791V37.508C189.464 37.5668 189.475 37.6251 189.497 37.6796C189.519 37.7341 189.551 37.7837 189.593 37.8256C189.635 37.8704 189.686 37.9056 189.743 37.9288C189.8 37.9519 189.861 37.9626 189.922 37.9599H198.618V40.0546C198.616 40.1154 198.626 40.176 198.648 40.2327C198.671 40.2895 198.704 40.3411 198.747 40.3844C198.787 40.426 198.835 40.4589 198.889 40.481C198.943 40.503 199 40.5138 199.058 40.5126H201.031ZM205.69 37.9599C205.826 37.9702 205.96 37.9312 206.069 37.85C206.145 37.7931 206.207 37.7201 206.252 37.6363L211.84 29.8806V37.508C211.838 37.5684 211.849 37.6285 211.872 37.6843C211.895 37.7401 211.93 37.7903 211.974 37.8317C212.061 37.9148 212.177 37.9608 212.298 37.9599H214.282C214.342 37.9617 214.402 37.9513 214.458 37.9292C214.513 37.9072 214.564 37.874 214.606 37.8317C214.649 37.79 214.683 37.7396 214.705 37.6837C214.727 37.6279 214.737 37.568 214.734 37.508V25.6791C214.737 25.6188 214.727 25.5586 214.705 25.5023C214.684 25.446 214.65 25.3948 214.608 25.3518C214.566 25.3088 214.515 25.2751 214.459 25.2526C214.403 25.2301 214.343 25.2194 214.282 25.2211H212.493C212.368 25.2166 212.244 25.2507 212.139 25.3188C212.052 25.3836 211.975 25.4619 211.913 25.5509L206.325 33.5386V25.6791C206.328 25.6188 206.318 25.5586 206.296 25.5023C206.274 25.446 206.241 25.3948 206.199 25.3518C206.157 25.3088 206.106 25.2751 206.05 25.2526C205.994 25.2301 205.934 25.2194 205.873 25.2211H203.901C203.78 25.2203 203.664 25.2662 203.577 25.3494C203.534 25.3924 203.499 25.4438 203.476 25.5004C203.453 25.5571 203.442 25.6179 203.443 25.6791V37.508C203.442 37.5668 203.453 37.6251 203.475 37.6796C203.497 37.7341 203.53 37.7837 203.571 37.8256C203.613 37.8704 203.664 37.9056 203.721 37.9288C203.778 37.9519 203.839 37.9626 203.901 37.9599H205.69ZM225.33 37.5996C226.107 37.2524 226.761 36.6774 227.205 35.9508C227.682 35.1028 227.933 34.1456 227.931 33.1722C227.931 32.6531 227.968 32.134 227.968 31.6211C227.968 31.1081 227.968 30.5768 227.931 30.0455C227.94 29.077 227.689 28.1239 227.205 27.2852C226.751 26.5483 226.087 25.9635 225.299 25.6058C224.416 25.211 223.457 25.017 222.49 25.0379C221.515 25.0158 220.548 25.2098 219.656 25.6058C218.87 25.9617 218.21 26.5472 217.763 27.2852C217.285 28.1267 217.033 29.0776 217.031 30.0455C217.031 30.5788 217.031 31.104 217.031 31.6211C217.031 32.134 217.031 32.6531 217.031 33.1722C217.026 34.146 217.277 35.1039 217.757 35.9508C218.199 36.6787 218.854 37.254 219.632 37.5996C221.462 38.3244 223.5 38.3244 225.33 37.5996ZM220.743 35.1569C220.239 34.5908 219.976 33.8501 220.011 33.0928C220.011 32.5554 220.011 32.0547 220.011 31.5905C220.011 31.1264 220.011 30.6318 220.011 30.1066C220.014 29.5698 220.135 29.0403 220.365 28.5554C220.556 28.18 220.859 27.8729 221.232 27.6761C221.622 27.4817 222.054 27.3853 222.49 27.3951C222.914 27.3893 223.333 27.4857 223.711 27.6761C224.08 27.8766 224.38 28.1829 224.572 28.5554C224.811 29.037 224.931 29.5691 224.921 30.1066C224.945 30.6236 224.957 31.1183 224.957 31.5905C224.957 32.0628 224.945 32.5635 224.921 33.0928C224.943 33.4675 224.892 33.8429 224.768 34.1973C224.644 34.5517 224.451 34.8779 224.2 35.1569C223.716 35.5747 223.099 35.8045 222.46 35.8045C221.82 35.8045 221.203 35.5747 220.719 35.1569H220.743ZM232.664 37.9661C232.724 37.9682 232.784 37.9579 232.839 37.9359C232.895 37.9138 232.946 37.8804 232.988 37.8378C233.031 37.7961 233.065 37.7457 233.087 37.6898C233.109 37.634 233.119 37.5741 233.116 37.5141V32.8119H238.05V37.508C238.047 37.568 238.057 37.6279 238.079 37.6837C238.101 37.7396 238.135 37.79 238.178 37.8317C238.222 37.8745 238.273 37.9079 238.33 37.9299C238.387 37.952 238.447 37.9622 238.508 37.9599H240.487C240.548 37.9622 240.608 37.952 240.665 37.9299C240.722 37.9079 240.773 37.8745 240.817 37.8317C240.86 37.79 240.894 37.7396 240.916 37.6837C240.938 37.6279 240.948 37.568 240.945 37.508V25.6791C240.947 25.6183 240.937 25.5576 240.915 25.5008C240.893 25.4441 240.86 25.3925 240.816 25.3495C240.773 25.3064 240.722 25.2728 240.665 25.2507C240.608 25.2286 240.548 25.2185 240.487 25.2211H238.508C238.447 25.2185 238.387 25.2286 238.33 25.2507C238.273 25.2728 238.222 25.3064 238.179 25.3495C238.136 25.3925 238.102 25.4441 238.08 25.5008C238.058 25.5576 238.048 25.6183 238.05 25.6791V30.2287H233.116V25.6791C233.118 25.6183 233.108 25.5577 233.086 25.501C233.064 25.4443 233.03 25.3927 232.988 25.3494C232.946 25.3068 232.895 25.2734 232.839 25.2513C232.784 25.2293 232.724 25.219 232.664 25.2211H230.679C230.618 25.2185 230.558 25.2286 230.501 25.2507C230.444 25.2728 230.393 25.3064 230.35 25.3495C230.307 25.3925 230.273 25.4441 230.251 25.5008C230.229 25.5576 230.219 25.6183 230.221 25.6791V37.508C230.218 37.568 230.228 37.6279 230.25 37.6837C230.273 37.7396 230.306 37.79 230.35 37.8317C230.393 37.8745 230.444 37.9079 230.501 37.9299C230.558 37.952 230.618 37.9622 230.679 37.9599L232.664 37.9661ZM246.099 37.9661C246.16 37.9683 246.22 37.9581 246.277 37.9361C246.334 37.914 246.385 37.8806 246.429 37.8378C246.472 37.7961 246.506 37.7457 246.528 37.6898C246.55 37.634 246.56 37.5741 246.557 37.5141V32.8119H251.491V37.508C251.488 37.5683 251.497 37.6287 251.519 37.6851C251.54 37.7415 251.573 37.7928 251.616 37.8355C251.659 37.8782 251.71 37.9113 251.766 37.9328C251.823 37.9542 251.883 37.9635 251.943 37.9599H253.928C253.989 37.9622 254.049 37.952 254.106 37.9299C254.163 37.9079 254.214 37.8745 254.258 37.8317C254.301 37.79 254.335 37.7396 254.357 37.6837C254.379 37.6279 254.389 37.568 254.386 37.508V25.6791C254.389 25.6183 254.379 25.5576 254.356 25.5008C254.334 25.4441 254.301 25.3925 254.258 25.3495C254.215 25.3064 254.163 25.2728 254.106 25.2507C254.05 25.2286 253.989 25.2185 253.928 25.2211H251.943C251.882 25.2189 251.822 25.2291 251.765 25.2511C251.708 25.2732 251.657 25.3066 251.613 25.3494C251.532 25.4393 251.488 25.5576 251.491 25.6791V30.2287H246.557V25.6791C246.56 25.6183 246.55 25.5576 246.527 25.5008C246.505 25.4441 246.472 25.3925 246.429 25.3495C246.386 25.3064 246.334 25.2728 246.277 25.2507C246.221 25.2286 246.16 25.2185 246.099 25.2211H244.12C244.06 25.2185 243.999 25.2286 243.942 25.2507C243.885 25.2728 243.834 25.3064 243.791 25.3495C243.748 25.3925 243.714 25.4441 243.692 25.5008C243.67 25.5576 243.66 25.6183 243.662 25.6791V37.508C243.66 37.568 243.669 37.6279 243.692 37.6837C243.714 37.7396 243.747 37.79 243.791 37.8317C243.834 37.8745 243.886 37.9079 243.942 37.9299C243.999 37.952 244.06 37.9622 244.12 37.9599L246.099 37.9661ZM261.849 37.9661C262.742 37.996 263.63 37.8117 264.438 37.4287C265.104 37.1015 265.657 36.5826 266.026 35.9386C266.386 35.278 266.569 34.5353 266.557 33.7829C266.603 33.2142 266.517 32.6425 266.305 32.1128C266.093 31.583 265.761 31.1096 265.336 30.7295C264.331 29.9967 263.102 29.6381 261.861 29.7157H259.962V25.6791C259.964 25.6183 259.954 25.5576 259.932 25.5008C259.91 25.4441 259.876 25.3925 259.833 25.3495C259.79 25.3064 259.739 25.2728 259.682 25.2507C259.625 25.2286 259.564 25.2185 259.504 25.2211H257.519C257.459 25.2182 257.399 25.2281 257.343 25.2502C257.287 25.2724 257.237 25.3062 257.195 25.3494C257.152 25.3927 257.119 25.4443 257.097 25.501C257.075 25.5577 257.065 25.6183 257.067 25.6791V37.508C257.065 37.5679 257.076 37.6274 257.098 37.683C257.12 37.7385 257.153 37.789 257.196 37.8313C257.238 37.8736 257.288 37.9069 257.344 37.929C257.399 37.9511 257.459 37.9616 257.519 37.9599L261.849 37.9661ZM259.974 31.9814H261.757C262.246 31.9493 262.728 32.1093 263.1 32.4272C263.271 32.6069 263.401 32.8205 263.483 33.0542C263.565 33.2878 263.597 33.5361 263.577 33.7829C263.596 34.2844 263.426 34.7748 263.1 35.1569C262.929 35.3393 262.72 35.4819 262.488 35.5747C262.256 35.6676 262.007 35.7084 261.757 35.6943H259.962V31.9814H259.974ZM270.545 37.9661C270.605 37.9683 270.666 37.9581 270.723 37.9361C270.78 37.914 270.831 37.8806 270.874 37.8378C270.918 37.7961 270.951 37.7457 270.974 37.6898C270.996 37.634 271.006 37.5741 271.003 37.5141V25.6791C271.005 25.6183 270.995 25.5576 270.973 25.5008C270.951 25.4441 270.917 25.3925 270.874 25.3495C270.831 25.3064 270.78 25.2728 270.723 25.2507C270.666 25.2286 270.605 25.2185 270.545 25.2211H268.487C268.426 25.2194 268.366 25.2301 268.31 25.2526C268.254 25.2751 268.203 25.3088 268.161 25.3518C268.119 25.3948 268.086 25.446 268.064 25.5023C268.042 25.5586 268.032 25.6188 268.035 25.6791V37.508C268.032 37.568 268.042 37.6279 268.064 37.6837C268.086 37.7396 268.12 37.79 268.163 37.8317C268.205 37.874 268.256 37.9072 268.312 37.9292C268.367 37.9513 268.427 37.9617 268.487 37.9599L270.545 37.9661ZM275.949 37.9661C276.086 37.9737 276.222 37.9349 276.334 37.8561C276.41 37.7992 276.472 37.7262 276.517 37.6424L282.105 29.8867V37.5141C282.102 37.5747 282.112 37.6351 282.136 37.6911C282.159 37.7471 282.194 37.7972 282.239 37.8378C282.281 37.8791 282.331 37.9116 282.385 37.9337C282.44 37.9557 282.498 37.9667 282.557 37.9661H284.542C284.602 37.9683 284.663 37.9581 284.72 37.9361C284.776 37.914 284.828 37.8806 284.871 37.8378C284.914 37.7961 284.948 37.7457 284.97 37.6898C284.992 37.634 285.002 37.5741 285 37.5141V25.6791C285.002 25.6183 284.992 25.5576 284.97 25.5008C284.948 25.4441 284.914 25.3925 284.871 25.3495C284.828 25.3064 284.777 25.2728 284.72 25.2507C284.663 25.2286 284.602 25.2185 284.542 25.2211H282.758C282.633 25.2166 282.509 25.2507 282.404 25.3188C282.317 25.3836 282.241 25.4619 282.178 25.5509L276.59 33.5386V25.6791C276.593 25.6183 276.583 25.5576 276.561 25.5008C276.539 25.4441 276.505 25.3925 276.462 25.3495C276.419 25.3064 276.367 25.2728 276.311 25.2507C276.254 25.2286 276.193 25.2185 276.132 25.2211H274.148C274.089 25.2205 274.031 25.2315 273.976 25.2535C273.922 25.2755 273.872 25.3081 273.83 25.3494C273.785 25.3914 273.75 25.4427 273.727 25.4996C273.704 25.5565 273.693 25.6177 273.696 25.6791V37.508C273.695 37.5668 273.706 37.6251 273.728 37.6796C273.75 37.7341 273.783 37.7837 273.824 37.8256C273.865 37.8702 273.915 37.9054 273.971 37.9286C274.027 37.9518 274.087 37.9625 274.148 37.9599L275.949 37.9661ZM281.213 24.1341C281.626 23.9346 281.968 23.6153 282.196 23.2181C282.399 22.8322 282.504 22.4022 282.502 21.9662C282.503 21.8762 282.47 21.789 282.41 21.7219C282.379 21.6876 282.34 21.661 282.296 21.644C282.253 21.6271 282.206 21.6203 282.16 21.6242H280.938C280.891 21.6211 280.844 21.6282 280.8 21.6451C280.755 21.662 280.715 21.6882 280.682 21.7219C280.622 21.789 280.589 21.8762 280.59 21.9662C280.593 22.1321 280.56 22.2967 280.493 22.4486C280.419 22.6101 280.295 22.7431 280.138 22.8272C279.905 22.9326 279.649 22.9808 279.393 22.9677C279.143 22.9809 278.894 22.9327 278.667 22.8272C278.509 22.7434 278.382 22.6106 278.306 22.4486C278.24 22.2967 278.206 22.1321 278.209 21.9662C278.21 21.8762 278.177 21.789 278.117 21.7219C278.084 21.6882 278.044 21.662 278 21.6451C277.955 21.6282 277.908 21.6211 277.861 21.6242H276.639C276.59 21.6193 276.54 21.6255 276.494 21.6424C276.447 21.6593 276.405 21.6865 276.371 21.7219C276.319 21.7929 276.291 21.8784 276.291 21.9662C276.287 22.4017 276.389 22.8317 276.59 23.2181C276.817 23.621 277.166 23.9417 277.586 24.1341C278.763 24.6 280.073 24.6 281.25 24.1341H281.213Z" fill="#1D1D1B"/>
<path d="M108.94 17.0322C109.004 17.0395 109.068 17.0326 109.129 17.0122C109.19 16.9918 109.246 16.9583 109.292 16.9141C109.339 16.8699 109.375 16.816 109.399 16.7562C109.422 16.6964 109.432 16.6322 109.428 16.5681V15.133C109.431 15.0721 109.421 15.0114 109.399 14.9547C109.377 14.8979 109.343 14.8464 109.3 14.8033C109.257 14.7603 109.205 14.7266 109.149 14.7045C109.092 14.6824 109.031 14.6724 108.97 14.675H102.931V11.7254H108.427C108.548 11.7288 108.667 11.685 108.757 11.6032C108.798 11.5629 108.831 11.5145 108.853 11.4609C108.875 11.4073 108.886 11.3497 108.885 11.2918V9.94216C108.887 9.88183 108.876 9.82178 108.853 9.76577C108.831 9.70975 108.797 9.65898 108.754 9.61658C108.711 9.57419 108.66 9.54109 108.604 9.51935C108.547 9.49762 108.487 9.48772 108.427 9.49026H102.931V6.63227H108.818C108.877 6.63406 108.937 6.62359 108.993 6.60154C109.048 6.57949 109.099 6.5463 109.141 6.50402C109.183 6.46371 109.216 6.41526 109.238 6.36167C109.26 6.30808 109.271 6.25052 109.27 6.19258V4.73915C109.272 4.67885 109.262 4.61866 109.24 4.56235C109.219 4.50604 109.186 4.45481 109.143 4.41184C109.101 4.36887 109.05 4.33509 108.994 4.3126C108.938 4.29012 108.878 4.27941 108.818 4.28114H100.549C100.489 4.27941 100.429 4.29012 100.373 4.3126C100.317 4.33509 100.266 4.36887 100.223 4.41184C100.181 4.45481 100.148 4.50604 100.126 4.56235C100.104 4.61866 100.095 4.67885 100.097 4.73915V16.5681C100.095 16.6284 100.104 16.6886 100.126 16.7449C100.148 16.8012 100.181 16.8524 100.223 16.8954C100.266 16.9384 100.317 16.9721 100.373 16.9946C100.429 17.0171 100.489 17.0278 100.549 17.0261L108.94 17.0322ZM117.587 17.0322C118.426 17.0562 119.261 16.8935 120.03 16.5559C120.655 16.2769 121.181 15.8149 121.538 15.2307C121.887 14.6221 122.063 13.9291 122.045 13.2276C122.06 12.5883 121.874 11.9603 121.514 11.4322C121.198 10.9688 120.766 10.5962 120.262 10.3513C120.512 10.2189 120.742 10.0524 120.946 9.85668C121.204 9.62235 121.412 9.33764 121.556 9.02004C121.729 8.65154 121.815 8.24828 121.807 7.84141C121.823 7.18622 121.662 6.53881 121.343 5.96663C121.007 5.41936 120.507 4.99198 119.914 4.74527C119.127 4.42578 118.283 4.27595 117.434 4.30557H112.03C111.97 4.30266 111.91 4.31259 111.854 4.3347C111.798 4.35682 111.748 4.39061 111.706 4.43381C111.663 4.47712 111.63 4.52871 111.608 4.58542C111.586 4.64213 111.576 4.70278 111.578 4.76359V16.5681C111.576 16.6289 111.586 16.6895 111.608 16.7462C111.63 16.8029 111.663 16.8545 111.706 16.8978C111.748 16.941 111.798 16.9748 111.854 16.997C111.91 17.0191 111.97 17.029 112.03 17.0261L117.587 17.0322ZM114.46 11.5361H117.245C117.489 11.5197 117.734 11.5541 117.964 11.6372C118.194 11.7202 118.405 11.85 118.582 12.0185C118.735 12.1763 118.854 12.3629 118.934 12.5673C119.014 12.7717 119.052 12.99 119.047 13.2093C119.054 13.4429 119.011 13.6753 118.921 13.8911C118.832 14.1069 118.697 14.3013 118.527 14.4612C118.357 14.6212 118.154 14.7431 117.933 14.8189C117.712 14.8947 117.478 14.9226 117.245 14.9009H114.46V11.5361ZM114.46 6.41853H117.08C117.545 6.38279 118.005 6.52956 118.363 6.82768C118.506 6.96854 118.619 7.13819 118.692 7.32552C118.766 7.51284 118.799 7.71362 118.79 7.91469C118.798 8.1174 118.764 8.31954 118.69 8.5086C118.617 8.69767 118.505 8.86966 118.363 9.01393C118.188 9.16712 117.985 9.28384 117.765 9.35725C117.544 9.43067 117.312 9.45928 117.08 9.4414H114.46V6.41853ZM126.741 17.0322C126.802 17.0348 126.863 17.0247 126.919 17.0026C126.976 16.9805 127.028 16.9469 127.071 16.9038C127.114 16.8608 127.147 16.8092 127.17 16.7525C127.192 16.6957 127.202 16.635 127.199 16.5742V12.4643H129.642C130.515 12.484 131.384 12.3347 132.201 12.0246C132.886 11.7586 133.475 11.2926 133.892 10.6872C134.323 10.0057 134.536 9.20897 134.503 8.40325C134.533 7.59792 134.32 6.80216 133.892 6.1193C133.479 5.50188 132.89 5.02311 132.201 4.74527C131.387 4.42277 130.517 4.26702 129.642 4.28725H124.695C124.635 4.28466 124.574 4.29473 124.517 4.31683C124.46 4.33893 124.409 4.37256 124.366 4.41562C124.323 4.45868 124.289 4.51023 124.267 4.56697C124.245 4.62371 124.235 4.68443 124.237 4.74527V16.5681C124.235 16.6289 124.245 16.6896 124.267 16.7464C124.289 16.8031 124.323 16.8546 124.366 16.8977C124.409 16.9408 124.46 16.9744 124.517 16.9965C124.574 17.0186 124.635 17.0287 124.695 17.0261L126.741 17.0322ZM127.144 6.56509H129.544C129.816 6.53953 130.09 6.57145 130.349 6.65877C130.608 6.7461 130.846 6.88688 131.046 7.07197C131.364 7.4338 131.53 7.90392 131.511 8.38493C131.53 8.63707 131.493 8.89034 131.404 9.12676C131.314 9.36318 131.173 9.57693 130.991 9.75285C130.581 10.0758 130.066 10.2366 129.544 10.2048H127.138V6.54066L127.144 6.56509ZM137.526 17.0322C137.597 17.0384 137.669 17.0302 137.737 17.0082C137.805 16.9861 137.868 16.9507 137.923 16.9039C137.995 16.838 138.051 16.7566 138.088 16.6658L138.869 14.6261H144.005L144.787 16.6658C144.823 16.7566 144.879 16.838 144.952 16.9039C145.006 16.9504 145.069 16.9857 145.137 17.0077C145.206 17.0297 145.277 17.038 145.349 17.0322H147.242C147.294 17.0328 147.345 17.0222 147.393 17.0012C147.44 16.9801 147.482 16.949 147.517 16.9101C147.587 16.8405 147.626 16.7461 147.626 16.6475C147.633 16.5927 147.633 16.5373 147.626 16.4826L143.297 4.78191C143.26 4.64667 143.183 4.52552 143.077 4.43381C142.948 4.32959 142.784 4.27733 142.619 4.28725H140.292C140.127 4.27733 139.963 4.32959 139.834 4.43381C139.73 4.52586 139.655 4.64711 139.62 4.78191L135.285 16.4826C135.278 16.5373 135.278 16.5927 135.285 16.6475C135.285 16.7461 135.325 16.8405 135.395 16.9101C135.429 16.949 135.471 16.9801 135.519 17.0012C135.566 17.0222 135.617 17.0328 135.669 17.0322H137.526ZM141.44 7.03533L143.315 12.2811H139.547L141.44 7.03533ZM156.555 16.7207C157.277 16.4488 157.91 15.9841 158.387 15.3772C158.816 14.7987 159.041 14.0944 159.028 13.3742C159.029 12.9782 158.967 12.5845 158.845 12.2078C158.719 11.8235 158.525 11.4655 158.271 11.1513C157.977 10.7999 157.608 10.5201 157.19 10.333C157.536 10.1502 157.837 9.8913 158.069 9.57575C158.269 9.29593 158.414 8.98103 158.497 8.64752C158.58 8.33054 158.623 8.0043 158.625 7.67654C158.626 7.04409 158.425 6.42789 158.051 5.91777C157.626 5.34238 157.054 4.89118 156.396 4.61092C155.565 4.25449 154.667 4.08359 153.764 4.11015C153.003 4.09628 152.244 4.19297 151.51 4.39717C150.95 4.55662 150.423 4.81967 149.959 5.17273C149.579 5.47425 149.267 5.85308 149.043 6.28418C148.835 6.68278 148.709 7.11869 148.671 7.56662C148.663 7.61694 148.668 7.66844 148.685 7.71644C148.702 7.76443 148.731 7.80739 148.768 7.84141C148.845 7.91081 148.946 7.948 149.049 7.94524H151.089C151.197 7.95337 151.305 7.93003 151.401 7.87805C151.486 7.81279 151.55 7.72346 151.584 7.62158C151.627 7.43419 151.712 7.25876 151.831 7.1078C151.95 6.95685 152.102 6.83409 152.274 6.7483C152.721 6.53561 153.214 6.435 153.709 6.45517C154.064 6.44611 154.417 6.5084 154.747 6.63837C155.022 6.74555 155.262 6.92489 155.443 7.15745C155.609 7.38187 155.697 7.65414 155.694 7.93301C155.711 8.15284 155.671 8.3735 155.577 8.57286C155.483 8.77222 155.337 8.94328 155.156 9.06889C154.738 9.32386 154.253 9.44726 153.764 9.42308H152.494C152.431 9.42112 152.369 9.4333 152.312 9.45867C152.255 9.48405 152.204 9.52199 152.164 9.56965C152.08 9.66375 152.034 9.78567 152.036 9.91164V11.133C152.032 11.2575 152.078 11.3783 152.164 11.4689C152.206 11.5144 152.257 11.5506 152.314 11.5748C152.37 11.599 152.432 11.6108 152.494 11.6093H153.819C154.392 11.5743 154.962 11.7195 155.449 12.0246C155.647 12.159 155.807 12.3419 155.914 12.5557C156.021 12.7695 156.071 13.0072 156.06 13.246C156.068 13.5634 155.961 13.8731 155.761 14.1192C155.54 14.3764 155.252 14.5685 154.93 14.675C154.537 14.8083 154.124 14.8723 153.709 14.8643C153.197 14.89 152.687 14.7805 152.231 14.5467C151.894 14.3645 151.631 14.0709 151.486 13.7162C151.428 13.6114 151.346 13.5216 151.248 13.4536C151.149 13.3976 151.037 13.3701 150.924 13.3742H148.958C148.85 13.3736 148.746 13.4128 148.665 13.4841C148.624 13.5147 148.592 13.5558 148.572 13.6032C148.553 13.6505 148.547 13.7023 148.555 13.7528C148.613 14.1811 148.75 14.5951 148.958 14.9742C149.188 15.413 149.511 15.7964 149.904 16.0979C150.379 16.4541 150.915 16.7192 151.486 16.8795C152.225 17.0881 152.99 17.1868 153.758 17.1726C154.726 17.1954 155.688 17.0274 156.591 16.678L156.555 16.7207ZM163.425 17.0322C163.562 17.0398 163.697 17.0011 163.81 16.9223C163.883 16.8617 163.943 16.7869 163.987 16.7024L169.574 8.94675V16.5681C169.573 16.6299 169.585 16.6913 169.609 16.7482C169.633 16.805 169.669 16.8561 169.715 16.8978C169.757 16.9391 169.806 16.9717 169.861 16.9937C169.915 17.0157 169.974 17.0267 170.032 17.0261H172.017C172.077 17.029 172.137 17.0191 172.193 16.997C172.249 16.9748 172.299 16.941 172.341 16.8978C172.384 16.8545 172.417 16.8029 172.439 16.7462C172.461 16.6895 172.471 16.6289 172.469 16.5681V4.74527C172.471 4.68446 172.461 4.62382 172.439 4.5671C172.417 4.51039 172.384 4.4588 172.341 4.41549C172.299 4.37229 172.249 4.3385 172.193 4.31638C172.137 4.29427 172.077 4.28434 172.017 4.28725H170.234C170.108 4.2845 169.984 4.32075 169.88 4.39106C169.791 4.45354 169.713 4.52981 169.648 4.61701L164.06 12.6108V4.74527C164.062 4.68446 164.052 4.62382 164.03 4.5671C164.008 4.51039 163.974 4.4588 163.932 4.41549C163.89 4.37229 163.84 4.3385 163.784 4.31638C163.728 4.29427 163.668 4.28434 163.608 4.28725H161.623C161.565 4.28664 161.506 4.29765 161.452 4.31966C161.397 4.34167 161.348 4.37424 161.306 4.41549C161.26 4.45727 161.224 4.50831 161.2 4.56518C161.176 4.62206 161.164 4.68346 161.165 4.74527V16.5681C161.164 16.6269 161.175 16.6853 161.197 16.7398C161.219 16.7944 161.252 16.844 161.294 16.8856C161.335 16.9312 161.386 16.9673 161.443 16.9915C161.5 17.0158 161.562 17.0275 161.623 17.0261L163.425 17.0322ZM177.422 17.0322C177.559 17.0398 177.694 17.0011 177.806 16.9223C177.88 16.8617 177.94 16.7869 177.984 16.7024L183.571 8.94675V16.5681C183.57 16.6299 183.582 16.6913 183.606 16.7482C183.63 16.805 183.666 16.8561 183.712 16.8978C183.754 16.9391 183.803 16.9717 183.858 16.9937C183.912 17.0157 183.971 17.0267 184.029 17.0261H186.014C186.074 17.029 186.134 17.0191 186.19 16.997C186.245 16.9748 186.296 16.941 186.338 16.8978C186.38 16.8545 186.414 16.8029 186.436 16.7462C186.458 16.6895 186.468 16.6289 186.466 16.5681V4.74527C186.468 4.68446 186.458 4.62382 186.436 4.5671C186.414 4.51039 186.38 4.4588 186.338 4.41549C186.296 4.37229 186.245 4.3385 186.19 4.31638C186.134 4.29427 186.074 4.28434 186.014 4.28725H184.231C184.105 4.2845 183.981 4.32075 183.877 4.39106C183.788 4.45354 183.709 4.52981 183.645 4.61701L178.057 12.6108V4.74527C178.059 4.68446 178.049 4.62382 178.027 4.5671C178.005 4.51039 177.971 4.4588 177.929 4.41549C177.887 4.37229 177.836 4.3385 177.781 4.31638C177.725 4.29427 177.665 4.28434 177.605 4.28725H175.62C175.561 4.28664 175.503 4.29765 175.449 4.31966C175.394 4.34167 175.344 4.37424 175.303 4.41549C175.257 4.45727 175.221 4.50831 175.197 4.56518C175.173 4.62206 175.161 4.68346 175.162 4.74527V16.5681C175.161 16.6269 175.172 16.6853 175.194 16.7398C175.216 16.7944 175.249 16.844 175.29 16.8856C175.332 16.9312 175.383 16.9673 175.44 16.9915C175.497 17.0158 175.558 17.0275 175.62 17.0261L177.422 17.0322ZM182.68 3.20022C183.096 3.00373 183.44 2.68111 183.663 2.2781C183.866 1.90294 183.973 1.48333 183.974 1.05674C183.977 0.966519 183.944 0.87894 183.883 0.81247C183.85 0.777619 183.81 0.750277 183.766 0.732351C183.722 0.714426 183.674 0.706337 183.626 0.708646H182.405C182.357 0.706337 182.309 0.714426 182.265 0.732351C182.221 0.750277 182.181 0.777619 182.148 0.81247C182.087 0.87894 182.054 0.966519 182.057 1.05674C182.059 1.22265 182.025 1.3871 181.959 1.53918C181.883 1.69769 181.759 1.8281 181.605 1.91169C181.371 2.02276 181.112 2.07316 180.854 2.05825C180.603 2.07166 180.353 2.02124 180.127 1.91169C179.971 1.82986 179.847 1.69894 179.773 1.53918C179.706 1.3871 179.673 1.22265 179.675 1.05674C179.677 0.966519 179.645 0.87894 179.584 0.81247C179.551 0.777619 179.511 0.750277 179.467 0.732351C179.422 0.714426 179.375 0.706337 179.327 0.708646H178.106C178.057 0.704524 178.008 0.711751 177.962 0.729761C177.917 0.747771 177.876 0.776084 177.843 0.81247C177.788 0.881648 177.76 0.968403 177.764 1.05674C177.764 1.482 177.866 1.90097 178.063 2.2781C178.286 2.68284 178.633 3.00584 179.052 3.20022C179.629 3.45094 180.256 3.56787 180.884 3.54222C181.513 3.57002 182.14 3.453 182.716 3.20022H182.68ZM196.444 16.9039C197.07 16.7153 197.656 16.4131 198.173 16.0123C198.642 15.6412 199.027 15.175 199.302 14.6444C199.573 14.1008 199.721 13.5047 199.736 12.8979C199.738 12.8464 199.728 12.7951 199.708 12.7477C199.688 12.7002 199.658 12.6577 199.62 12.6231C199.542 12.5562 199.442 12.5194 199.339 12.5192H197.263C197.139 12.5116 197.016 12.5461 196.915 12.617C196.81 12.7167 196.739 12.8471 196.713 12.9895C196.618 13.577 196.296 14.1034 195.815 14.4551C195.334 14.7415 194.781 14.8835 194.222 14.8643C193.57 14.9007 192.931 14.6816 192.438 14.2536C191.943 13.6862 191.689 12.9477 191.73 12.1956C191.693 11.1534 191.693 10.1355 191.73 9.14217C191.689 8.39005 191.943 7.65157 192.438 7.08417C192.931 6.65611 193.57 6.43701 194.222 6.47349C194.777 6.45334 195.326 6.59325 195.803 6.87654C196.289 7.22788 196.616 7.75688 196.713 8.34829C196.744 8.48728 196.814 8.61452 196.915 8.7147C197.014 8.79228 197.137 8.83133 197.263 8.82462H199.339C199.443 8.8251 199.544 8.78578 199.62 8.7147C199.658 8.68009 199.688 8.63756 199.708 8.5901C199.728 8.54264 199.738 8.49138 199.736 8.43989C199.72 7.83317 199.572 7.23723 199.302 6.69333C199.027 6.16275 198.642 5.69657 198.173 5.3254C197.656 4.92464 197.07 4.62241 196.444 4.43381C195.722 4.22405 194.973 4.12118 194.222 4.12847C193.231 4.10001 192.247 4.29844 191.345 4.70861C190.57 5.07122 189.921 5.65841 189.483 6.3941C189.015 7.20495 188.761 8.12099 188.744 9.05668C188.744 9.58187 188.744 10.1254 188.744 10.6994C188.744 11.2735 188.744 11.7986 188.744 12.2994C188.762 13.2392 189.011 14.1601 189.47 14.9803C189.899 15.7113 190.537 16.2965 191.303 16.6597C192.215 17.0641 193.206 17.2602 194.203 17.2337C194.956 17.2421 195.705 17.1371 196.426 16.9223L196.444 16.9039ZM204.212 17.0322C204.273 17.0348 204.334 17.0247 204.391 17.0026C204.447 16.9805 204.499 16.9469 204.542 16.9038C204.585 16.8608 204.619 16.8092 204.641 16.7525C204.663 16.6957 204.673 16.635 204.67 16.5742V11.878H206.124L209.128 16.7024C209.191 16.7763 209.258 16.8457 209.33 16.9101C209.442 16.9989 209.584 17.0425 209.727 17.0322H212.005C212.057 17.0322 212.109 17.0213 212.158 17.0003C212.206 16.9793 212.25 16.9486 212.286 16.9101C212.325 16.8713 212.357 16.8247 212.378 16.7732C212.399 16.7217 212.409 16.6664 212.408 16.6108C212.411 16.5417 212.398 16.4728 212.371 16.4093L208.621 10.4246L212.023 4.89182C212.079 4.82396 212.11 4.73864 212.11 4.65059C212.11 4.56254 212.079 4.47725 212.023 4.40938C211.989 4.36858 211.946 4.3363 211.897 4.3151C211.848 4.2939 211.795 4.28437 211.742 4.28725H209.544C209.396 4.28237 209.25 4.31829 209.122 4.39106C209.019 4.45106 208.931 4.53477 208.866 4.63533L206.044 9.29484H204.701V4.74527C204.703 4.68443 204.693 4.62371 204.671 4.56697C204.649 4.51023 204.616 4.45868 204.572 4.41562C204.529 4.37256 204.478 4.33893 204.421 4.31683C204.364 4.29473 204.304 4.28466 204.243 4.28725H202.258C202.198 4.28552 202.138 4.29623 202.082 4.31871C202.026 4.3412 201.975 4.37497 201.933 4.41793C201.89 4.4609 201.857 4.51215 201.835 4.56846C201.814 4.62477 201.804 4.68496 201.806 4.74527V16.5681C201.804 16.6284 201.814 16.6886 201.835 16.7449C201.857 16.8012 201.89 16.8524 201.933 16.8954C201.975 16.9384 202.026 16.9721 202.082 16.9946C202.138 17.0171 202.198 17.0278 202.258 17.0261L204.212 17.0322ZM216.499 17.0322C216.636 17.0398 216.772 17.0011 216.884 16.9223C216.959 16.8618 217.021 16.7871 217.067 16.7024L222.655 8.94675V16.5681C222.652 16.6295 222.663 16.6907 222.686 16.7476C222.709 16.8045 222.745 16.8558 222.789 16.8978C222.831 16.9391 222.881 16.9717 222.935 16.9937C222.99 17.0157 223.048 17.0267 223.107 17.0261H225.092C225.152 17.0283 225.213 17.0181 225.27 16.9961C225.326 16.974 225.378 16.9406 225.421 16.8978C225.503 16.8079 225.547 16.6897 225.543 16.5681V4.74527C225.547 4.62368 225.503 4.50548 225.421 4.41549C225.378 4.37274 225.326 4.3393 225.27 4.31724C225.213 4.29519 225.152 4.28499 225.092 4.28725H223.308C223.182 4.2845 223.059 4.32075 222.954 4.39106C222.865 4.45354 222.787 4.52981 222.722 4.61701L217.134 12.6108V4.74527C217.138 4.62368 217.094 4.50548 217.012 4.41549C216.969 4.37274 216.917 4.3393 216.861 4.31724C216.804 4.29519 216.743 4.28499 216.682 4.28725H214.698C214.639 4.28664 214.581 4.29765 214.526 4.31966C214.472 4.34167 214.422 4.37424 214.38 4.41549C214.335 4.45757 214.3 4.50881 214.277 4.56572C214.254 4.62263 214.243 4.68387 214.246 4.74527V16.5681C214.244 16.6857 214.288 16.7994 214.368 16.8856C214.41 16.9312 214.461 16.9673 214.518 16.9915C214.575 17.0158 214.636 17.0275 214.698 17.0261L216.499 17.0322ZM230.496 17.0322C230.633 17.0398 230.769 17.0011 230.881 16.9223C230.956 16.8618 231.018 16.7871 231.064 16.7024L236.652 8.94675V16.5681C236.649 16.6295 236.66 16.6907 236.683 16.7476C236.706 16.8045 236.741 16.8558 236.786 16.8978C236.828 16.9391 236.878 16.9717 236.932 16.9937C236.987 17.0157 237.045 17.0267 237.104 17.0261H239.088C239.149 17.0283 239.21 17.0181 239.267 16.9961C239.323 16.974 239.375 16.9406 239.418 16.8978C239.5 16.8079 239.544 16.6897 239.54 16.5681V4.74527C239.544 4.62368 239.5 4.50548 239.418 4.41549C239.375 4.37274 239.323 4.3393 239.267 4.31724C239.21 4.29519 239.149 4.28499 239.088 4.28725H237.305C237.179 4.2845 237.056 4.32075 236.951 4.39106C236.862 4.45354 236.784 4.52981 236.719 4.61701L231.131 12.6108V4.74527C231.135 4.62368 231.091 4.50548 231.009 4.41549C230.966 4.37274 230.914 4.3393 230.857 4.31724C230.801 4.29519 230.74 4.28499 230.679 4.28725H228.695C228.636 4.28664 228.578 4.29765 228.523 4.31966C228.469 4.34167 228.419 4.37424 228.377 4.41549C228.332 4.45757 228.297 4.50881 228.274 4.56572C228.251 4.62263 228.24 4.68387 228.243 4.74527V16.5681C228.241 16.6857 228.285 16.7994 228.365 16.8856C228.407 16.9312 228.458 16.9673 228.515 16.9915C228.571 17.0158 228.633 17.0275 228.695 17.0261L230.496 17.0322ZM235.76 3.20022C236.174 3.00165 236.515 2.6794 236.737 2.2781C236.94 1.90294 237.047 1.48333 237.049 1.05674C237.051 0.966519 237.018 0.87894 236.957 0.81247C236.925 0.778095 236.887 0.751001 236.843 0.733078C236.8 0.715155 236.754 0.706822 236.707 0.708646H235.485C235.438 0.706337 235.39 0.714426 235.346 0.732351C235.301 0.750277 235.262 0.777619 235.229 0.81247C235.168 0.87894 235.135 0.966519 235.137 1.05674C235.139 1.22265 235.106 1.3871 235.04 1.53918C234.964 1.69769 234.84 1.8281 234.685 1.91169C234.451 2.02276 234.193 2.07316 233.934 2.05825C233.684 2.07166 233.433 2.02124 233.208 1.91169C233.052 1.82986 232.927 1.69894 232.853 1.53918C232.787 1.3871 232.754 1.22265 232.756 1.05674C232.758 0.966519 232.725 0.87894 232.664 0.81247C232.631 0.777619 232.591 0.750277 232.547 0.732351C232.503 0.714426 232.455 0.706337 232.408 0.708646H231.186C231.137 0.705428 231.089 0.713075 231.043 0.731028C230.998 0.748982 230.957 0.776802 230.924 0.81247C230.869 0.881648 230.84 0.968403 230.844 1.05674C230.844 1.482 230.947 1.90097 231.143 2.2781C231.367 2.68284 231.713 3.00584 232.133 3.20022C233.312 3.65595 234.618 3.65595 235.797 3.20022H235.76Z" fill="#1D1D1B"/>
</svg>
