<svg width="162" height="75" viewBox="0 0 162 75" fill="none" xmlns="http://www.w3.org/2000/svg">
<path d="M46.4583 34.3609V17.0117H51.6278L56.7973 22.8847L61.5639 17.0117H66.5992V34.3609H60.8254V25.855L56.663 30.648H56.5287L52.1648 25.855V34.3609H46.4583Z" fill="#4C2618"/>
<path d="M69.0161 25.6525C69.0161 23.0198 69.8889 20.8596 71.6344 19.1044C73.38 17.3492 75.7297 16.5391 78.6166 16.5391C81.5035 16.5391 83.8532 17.4167 85.5316 19.1044C87.2772 20.8596 88.15 23.0198 88.15 25.6525C88.15 28.2853 87.2772 30.4455 85.5316 32.2007C83.7861 33.9559 81.5035 34.7659 78.6166 34.7659C75.7297 34.7659 73.38 33.8884 71.6344 32.2007C69.8889 30.513 69.0161 28.3528 69.0161 25.6525ZM78.5495 29.4329C80.5636 29.4329 81.9734 28.0153 81.9734 25.72C81.9734 23.5598 80.4964 22.0072 78.5495 22.0072C76.6025 22.0072 75.1255 23.4923 75.1255 25.72C75.1255 27.8127 76.6025 29.4329 78.5495 29.4329Z" fill="#4C2618"/>
<path d="M96.2735 34.3609H90.4998V17.0116H96.2735V26.0576L102.383 17.0116H108.157V34.3609H102.383V25.315L96.2735 34.3609ZM97.8848 8.5733C97.8848 10.0585 98.4218 10.801 99.496 10.801C100.436 10.801 100.973 10.0585 100.973 8.5733H105.941C105.941 12.3537 103.658 15.1215 99.496 15.1215C94.9979 15.1215 92.9167 12.4887 92.9167 8.5733H97.8848Z" fill="#4C2618"/>
<path d="M16.1799 32.5382C15.5756 33.4158 14.8371 33.9559 13.9644 34.2934C13.0916 34.6309 12.0174 34.901 10.7418 35.036C9.46622 35.2385 8.39204 35.576 7.385 35.9811C4.76668 37.1962 3.35682 39.964 3.02114 44.3519H3.08827C4.22959 41.9217 6.98218 40.3015 9.86904 40.3015C14.77 40.3015 17.8583 43.6768 17.8583 48.9424C17.8583 51.3726 16.9855 53.5328 15.3742 55.2205C13.6958 56.9757 11.6146 57.7857 8.99627 57.7857C6.17654 57.7857 3.96104 56.8407 2.34977 54.883C0.805636 52.9928 0 50.36 0 47.0522C0 39.5589 2.14836 34.901 6.37795 33.0783C7.385 32.6057 8.52632 32.3357 9.73477 32.1332C12.1517 31.7281 13.4944 31.4581 14.5014 30.108L16.1799 32.5382ZM9.06341 54.9505C10.7418 54.9505 12.0845 54.3429 13.0916 53.2628C14.1658 52.1152 14.7029 50.765 14.7029 49.0774C14.7029 45.567 12.6888 43.2043 9.19768 43.2043C7.65354 43.2043 6.37795 43.6093 5.30377 44.4869C4.22959 45.3645 3.55823 46.3771 3.28968 47.5922C3.22254 52.0477 5.63945 54.9505 9.06341 54.9505Z" fill="#4C2618"/>
<path d="M23.7663 57.4482H20.678V40.0989H23.7663V52.9927L33.7024 40.0989H36.7907V57.4482H33.7024V44.5544L23.7663 57.4482Z" fill="#4C2618"/>
<path d="M42.2287 57.1782C40.8188 56.7056 39.8117 56.1656 39.2747 55.4905L40.8188 53.1953C42.2287 54.3429 44.3099 55.0854 45.9212 55.0854C48.5395 55.0854 50.4193 53.9378 50.4193 52.2502C50.4193 50.8325 49.1437 50.0224 47.0625 50.0224H44.1756V47.5247H46.8611C48.6066 47.5247 49.8151 46.4446 49.8151 45.0944C49.8151 43.5418 48.4052 42.5967 46.1226 42.5967C44.3099 42.5967 42.5643 43.2718 40.9531 44.4869L39.7446 42.1241C41.1545 40.7065 43.7728 39.8289 46.5254 39.8289C50.6878 39.8289 52.9705 41.5841 52.9705 44.4869C52.9705 46.5121 51.9634 47.8622 49.9493 48.5373V48.6048C52.232 48.8748 53.5747 50.5625 53.5747 52.6552C53.5747 55.828 50.6207 57.8532 46.2568 57.8532C45.0484 57.7857 43.6385 57.5832 42.2287 57.1782Z" fill="#4C2618"/>
<path d="M69.3519 57.4482V50.0899H59.7514V57.3807H56.6631V40.0989H59.7514V47.2547H69.3519V40.0989H72.4401V57.4482H69.3519Z" fill="#4C2618"/>
<path d="M90.8354 55.558C89.157 57.0431 87.0086 57.8532 84.3903 57.8532C81.5706 57.8532 79.3551 57.0431 77.6767 55.423C75.9983 53.7353 75.1255 51.5751 75.1255 48.8748C75.1255 46.2421 75.9311 44.0818 77.4753 42.3942C79.0194 40.639 81.2349 39.8289 83.9875 39.8289C86.2701 39.8289 88.1499 40.5715 89.6941 42.0566C91.2382 43.5418 91.9767 45.432 91.9767 47.7272C91.9767 48.5373 91.9096 49.2124 91.7753 49.8199H78.5494C78.818 53.0602 81.1678 55.0179 84.5246 55.0179C86.8072 55.0179 88.5528 54.4104 89.8283 53.1953L90.8354 55.558ZM78.4152 47.2547H88.8884C88.7542 44.3519 86.8743 42.6642 83.9203 42.6642C80.8321 42.5967 78.7508 44.4869 78.4152 47.2547Z" fill="#4C2618"/>
<path d="M109.029 54.9504C107.62 56.7731 105.136 57.8532 102.383 57.8532C99.6304 57.8532 97.4149 57.0431 95.6693 55.423C93.9909 53.7353 93.1182 51.5751 93.1182 48.8748C93.1182 46.3096 93.9909 44.1494 95.6022 42.4617C97.2806 40.7065 99.3618 39.8289 101.846 39.8289C104.867 39.8289 107.15 40.5715 108.627 42.1241L107.217 44.5544C105.941 43.3393 104.263 42.7317 102.249 42.7317C100.637 42.7317 99.2947 43.3393 98.0863 44.4869C96.9449 45.6345 96.3407 47.1196 96.3407 48.8748C96.3407 50.6975 96.9449 52.2502 98.0863 53.3303C99.2947 54.4779 100.772 55.0179 102.517 55.0179C104.531 55.0179 106.143 54.2754 107.485 52.7902L109.029 54.9504Z" fill="#4C2618"/>
<path d="M144.746 62.9163L138.972 57.1107L133.266 62.9163L138.972 75L144.746 62.9163Z" fill="#CF543C"/>
<path d="M138.972 23.8973C136.757 23.8973 134.944 25.72 134.944 27.9477C134.944 30.1755 136.757 31.9981 138.972 31.9981C141.188 31.9981 143 30.1755 143 27.9477C142.933 25.72 141.188 23.8973 138.972 23.8973Z" fill="#B7926A"/>
<path d="M138.972 5.87305C137.764 6.48061 121.853 14.919 121.853 28.4878C121.853 40.0315 131.184 57.5832 131.184 57.5832L138.972 49.7524L146.76 57.5832C146.76 57.5832 156.092 40.0315 156.092 28.4878C156.092 14.9865 140.181 6.48061 138.972 5.87305ZM144.142 44.4194L139.039 39.2889L133.937 44.4194C133.669 43.6768 130.245 34.3609 130.245 28.2853C130.245 20.0495 138.435 15.459 139.039 15.1215C139.644 15.459 147.834 20.0495 147.834 28.2853C147.834 34.3609 144.41 43.7443 144.142 44.4194Z" fill="#B7926A"/>
<path d="M156.137 0.0238551L150.298 5.89514L156.137 11.7664L161.976 5.89514L156.137 0.0238551Z" fill="#B7926A"/>
</svg>
