<svg width="15" height="15" viewBox="0 0 15 15" fill="none" xmlns="http://www.w3.org/2000/svg">
<path d="M3.61371 7.17622C3.61371 6.71011 3.69139 6.27729 3.82457 5.85557L1.42742 4.02441C0.961307 4.97883 0.706055 6.04423 0.706055 7.17622C0.706055 8.30821 0.972405 9.37361 1.43852 10.3169L3.83567 8.48578C3.69139 8.07515 3.61371 7.63124 3.61371 7.17622Z" fill="#FBBC05"/>
<path d="M7.82013 2.98138C8.81894 2.98138 9.72897 3.33652 10.4392 3.91361L12.5035 1.8494C11.2383 0.750703 9.62909 0.0737305 7.82013 0.0737305C5.00126 0.0737305 2.59302 1.68293 1.42773 4.02459L3.82488 5.85574C4.37978 4.17996 5.94458 2.98138 7.82013 2.98138Z" fill="#EA4335"/>
<path d="M7.82013 11.3714C5.95568 11.3714 4.37978 10.1618 3.83598 8.49707L1.42773 10.3282C2.59302 12.6699 5.00126 14.2791 7.82013 14.2791C9.55141 14.2791 11.2161 13.6576 12.4591 12.5034L10.1729 10.7499C9.54031 11.1606 8.73016 11.3714 7.82013 11.3714Z" fill="#34A853"/>
<path d="M14.6011 7.17652C14.6011 6.7548 14.5345 6.29978 14.4347 5.88916H7.82031V8.63034H11.638C11.4493 9.56257 10.9277 10.2839 10.1842 10.75L12.4592 12.5035C13.7577 11.2938 14.6011 9.49598 14.6011 7.17652Z" fill="#4285F4"/>
</svg>
