<svg width="139" height="65" viewBox="0 0 139 65" fill="none" xmlns="http://www.w3.org/2000/svg">
<g clip-path="url(#clip0)">
<path d="M40.5403 29.7795V14.7435H44.9439L49.3476 19.8335L53.4081 14.7435H57.6973V29.7795H52.779V22.4077L49.2332 26.5617H49.1188L45.4015 22.4077V29.7795H40.5403Z" fill="#4C2618"/>
<path d="M59.7561 22.2322C59.7561 19.9505 60.4996 18.0783 61.9865 16.5571C63.4735 15.036 65.4751 14.3339 67.9343 14.3339C70.3935 14.3339 72.3951 15.0945 73.8249 16.5571C75.3118 18.0783 76.0553 19.9505 76.0553 22.2322C76.0553 24.5139 75.3118 26.3861 73.8249 27.9073C72.3379 29.4284 70.3935 30.1305 67.9343 30.1305C65.4751 30.1305 63.4735 29.3699 61.9865 27.9073C60.4996 26.4446 59.7561 24.5724 59.7561 22.2322ZM67.8771 25.5085C69.5928 25.5085 70.7938 24.2799 70.7938 22.2907C70.7938 20.4185 69.5356 19.0729 67.8771 19.0729C66.2186 19.0729 64.9604 20.36 64.9604 22.2907C64.9604 24.1044 66.2186 25.5085 67.8771 25.5085Z" fill="#4C2618"/>
<path d="M82.9755 29.7795H78.0571V14.7435H82.9755V22.5833L88.1798 14.7435H93.0981V29.7795H88.1798V21.9397L82.9755 29.7795ZM84.348 7.43024C84.348 8.71737 84.8056 9.36093 85.7206 9.36093C86.5213 9.36093 86.9788 8.71737 86.9788 7.43024H91.2109C91.2109 10.7066 89.2664 13.1053 85.7206 13.1053C81.8889 13.1053 80.116 10.8236 80.116 7.43024H84.348Z" fill="#4C2618"/>
<path d="M14.7474 28.1998C14.2327 28.9604 13.6036 29.4284 12.8602 29.7209C12.1167 30.0135 11.2016 30.2475 10.115 30.3645C9.02842 30.54 8.11338 30.8325 7.25552 31.1836C5.0251 32.2367 3.82411 34.6354 3.53816 38.4383H3.59535C4.56758 36.3321 6.91238 34.928 9.37156 34.928C13.5464 34.928 16.1772 37.8532 16.1772 42.4167C16.1772 44.5229 15.4337 46.3951 14.0612 47.8577C12.6314 49.3789 10.8585 50.081 8.62809 50.081C6.2261 50.081 4.33882 49.2619 2.96626 47.5652C1.65088 45.9271 0.9646 43.6453 0.9646 40.7785C0.9646 34.2844 2.79469 30.2475 6.39767 28.6678C7.25552 28.2583 8.22776 28.0243 9.25718 27.8487C11.316 27.4977 12.4598 27.2637 13.3177 26.0936L14.7474 28.1998ZM8.68528 47.6237C10.115 47.6237 11.2588 47.0972 12.1167 46.1611C13.0317 45.1665 13.4893 43.9964 13.4893 42.5337C13.4893 39.4914 11.7736 37.4437 8.79966 37.4437C7.48428 37.4437 6.39767 37.7947 5.48263 38.5553C4.56758 39.3159 3.99568 40.1935 3.76692 41.2466C3.70973 45.108 5.76858 47.6237 8.68528 47.6237Z" fill="#4C2618"/>
<path d="M21.2099 49.7885H18.5791V34.7525H21.2099V45.9271L29.674 34.7525H32.3048V49.7885H29.674V38.6139L21.2099 49.7885Z" fill="#4C2618"/>
<path d="M36.9373 49.5544C35.7363 49.1449 34.8784 48.6769 34.4209 48.0918L35.7363 46.1026C36.9373 47.0972 38.7102 47.7408 40.0827 47.7408C42.3131 47.7408 43.9145 46.7462 43.9145 45.2835C43.9145 44.0549 42.8279 43.3528 41.055 43.3528H38.5958V41.1881H40.8834C42.3703 41.1881 43.3998 40.252 43.3998 39.0819C43.3998 37.7363 42.1988 36.9172 40.2543 36.9172C38.7102 36.9172 37.2232 37.5022 35.8507 38.5553L34.8212 36.5076C36.0222 35.279 38.2526 34.5184 40.5974 34.5184C44.1432 34.5184 46.0877 36.0396 46.0877 38.5553C46.0877 40.3105 45.2299 41.4806 43.5141 42.0657V42.1242C45.4586 42.3582 46.6024 43.8209 46.6024 45.6345C46.6024 48.3843 44.086 50.1395 40.3687 50.1395C39.3393 50.081 38.1383 49.9055 36.9373 49.5544Z" fill="#4C2618"/>
<path d="M60.0421 49.7885V43.4114H51.8639V49.73H49.2332V34.7525H51.8639V40.9541H60.0421V34.7525H62.6729V49.7885H60.0421Z" fill="#4C2618"/>
<path d="M78.343 48.1503C76.9132 49.4374 75.0831 50.1395 72.8527 50.1395C70.4507 50.1395 68.5634 49.4374 67.1337 48.0333C65.7039 46.5706 64.9604 44.6985 64.9604 42.3582C64.9604 40.0765 65.6467 38.2043 66.9621 36.7417C68.2775 35.2205 70.1648 34.5184 72.5096 34.5184C74.454 34.5184 76.0554 35.162 77.3707 36.4491C78.6861 37.7363 79.3152 39.3744 79.3152 41.3636C79.3152 42.0657 79.258 42.6508 79.1436 43.1773H67.8771C68.1059 45.9856 70.1076 47.6823 72.9671 47.6823C74.9115 47.6823 76.3985 47.1557 77.4851 46.1026L78.343 48.1503ZM67.7628 40.9541H76.6844C76.5701 38.4383 74.9687 36.9757 72.4524 36.9757C69.8216 36.9172 68.0487 38.5553 67.7628 40.9541Z" fill="#4C2618"/>
<path d="M93.8414 47.6237C92.6404 49.2034 90.5244 50.1395 88.1796 50.1395C85.8348 50.1395 83.9475 49.4374 82.4606 48.0333C81.0308 46.5706 80.2874 44.6985 80.2874 42.3582C80.2874 40.135 81.0308 38.2628 82.4034 36.8002C83.8331 35.279 85.606 34.5184 87.7221 34.5184C90.2957 34.5184 92.2401 35.162 93.4983 36.5076L92.2973 38.6138C91.2107 37.5607 89.7809 37.0342 88.0652 37.0342C86.6927 37.0342 85.5489 37.5607 84.5194 38.5553C83.5472 39.5499 83.0325 40.8371 83.0325 42.3582C83.0325 43.9379 83.5472 45.2835 84.5194 46.2196C85.5489 47.2142 86.807 47.6823 88.294 47.6823C90.0097 47.6823 91.3823 47.0387 92.5261 45.7516L93.8414 47.6237Z" fill="#4C2618"/>
<path d="M124.267 54.5274L119.348 49.4959L114.487 54.5274L119.348 65L124.267 54.5274Z" fill="#CF543C"/>
<path d="M119.348 20.7111C117.461 20.7111 115.917 22.2907 115.917 24.2214C115.917 26.1521 117.461 27.7318 119.348 27.7318C121.236 27.7318 122.78 26.1521 122.78 24.2214C122.723 22.2907 121.236 20.7111 119.348 20.7111Z" fill="#B7926A"/>
<path d="M119.348 5.08997C118.319 5.61652 104.765 12.9298 104.765 24.6894C104.765 34.6939 112.714 49.9055 112.714 49.9055L119.348 43.1188L125.982 49.9055C125.982 49.9055 133.932 34.6939 133.932 24.6894C133.932 12.9883 120.378 5.61652 119.348 5.08997ZM123.752 38.4968L119.406 34.0504L115.059 38.4968C114.83 37.8532 111.914 29.7794 111.914 24.5139C111.914 17.3762 118.891 13.3978 119.406 13.1053C119.92 13.3978 126.898 17.3762 126.898 24.5139C126.898 29.7794 123.981 37.9118 123.752 38.4968Z" fill="#B7926A"/>
<path d="M133.971 0.0206814L128.997 5.10913L133.971 10.1976L138.945 5.10913L133.971 0.0206814Z" fill="#B7926A"/>
</g>
<defs>
<clipPath id="clip0">
<rect width="138" height="65" fill="white" transform="translate(0.9646)"/>
</clipPath>
</defs>
</svg>
