<svg width="558" height="571" viewBox="0 0 558 571" fill="none" xmlns="http://www.w3.org/2000/svg">
<g opacity="0.8">
<path d="M217.732 458.701L159.327 424.981L159.327 357.541L217.732 323.821L276.137 357.541L276.137 424.981L217.732 458.701Z" fill="#FCE480"/>
<path opacity="0.4" d="M339.895 459.38L281.49 425.66L281.49 358.219L339.895 324.499L398.3 358.219L398.3 425.66L339.895 459.38Z" fill="#FCE480"/>
<path opacity="0.8" d="M279.064 352.793L220.658 319.073L220.658 251.633L279.063 217.913L337.469 251.633L337.469 319.073L279.064 352.793Z" fill="#FCE480"/>
<path opacity="0.7" d="M217.705 246.515L159.3 212.794L159.3 145.354L217.705 111.634L276.11 145.354L276.11 212.794L217.705 246.515Z" fill="#FCE480"/>
<path opacity="0.5" d="M401.228 353.472L342.823 319.752L342.823 252.312L401.228 218.591L459.633 252.312L459.633 319.752L401.228 353.472Z" fill="#FCE480"/>
<path opacity="0.6" d="M339.868 247.192L281.462 213.472L281.462 146.032L339.868 112.311L398.273 146.032L398.273 213.472L339.868 247.192Z" fill="#FCE480"/>
<path d="M156.371 352.422L97.9663 318.702L97.9663 251.262L156.371 217.541L214.776 251.262L214.776 318.702L156.371 352.422Z" fill="#FCE480"/>
</g>
</svg>
