<svg width="63" height="19" viewBox="0 0 63 19" fill="none" xmlns="http://www.w3.org/2000/svg">
<path d="M52.0241 0.122559H37.6895V5.5996H47.7562L52.0241 0.122559Z" fill="#D24D45"/>
<path d="M37.6895 10.8911V18.5201L43.633 10.8911H37.6895Z" fill="#D24D45"/>
<path d="M15.1538 6.80506C15.1538 5.9275 14.9785 5.05854 14.6379 4.24778C14.2974 3.43701 13.7983 2.70034 13.1689 2.0798C12.5397 1.45927 11.7926 0.967047 10.9705 0.631222C10.1483 0.295396 9.26706 0.122553 8.3772 0.122559H0.758789V4.33113L9.87552 13.3218C11.3742 12.9865 12.7128 12.159 13.6719 10.9749C14.6309 9.79078 15.1535 8.32048 15.1538 6.80506Z" fill="#4C5D98"/>
<path d="M0.817744 18.5844H15.2128L0.758789 4.33154L0.817744 18.5844Z" fill="#D24D45"/>
<path d="M32.5872 13.2149L26.1569 0L19.7236 13.2149H32.5872Z" fill="#D24D45"/>
<path d="M19.7233 13.2148L17.1387 18.5249L35.1116 18.4033L32.5874 13.2148H19.7233Z" fill="#4C5D98"/>
<path d="M52.0241 10.8912H37.6895V5.59961H52.0241V10.8912Z" fill="#4C5D98"/>
<path d="M56.2646 18.5845H62.4159V5.56909H56.2646V18.5845Z" fill="#D24D45"/>
<path d="M62.4159 5.56909H56.2646V0.0515137H62.4159V5.56909Z" fill="#4C5D98"/>
</svg>
