<svg width="71" height="19" viewBox="0 0 71 19" fill="none" xmlns="http://www.w3.org/2000/svg">
<path d="M43.7236 0.0673828H45.5868C47.9961 0.0673828 50.3067 1.02231 52.0103 2.72208C53.714 4.42186 54.6711 6.72726 54.6711 9.13111C54.6711 11.5349 53.714 13.8404 52.0103 15.5402C50.3067 17.24 47.9961 18.1948 45.5868 18.1948H43.7236V0.0673828Z" fill="#30448B"/>
<path d="M43.7951 18.1949H41.9053C40.7159 18.1949 39.538 17.9611 38.4391 17.5069C37.3402 17.0528 36.3416 16.3871 35.5005 15.548C34.6595 14.7087 33.9923 13.7125 33.5372 12.616C33.0819 11.5196 32.8477 10.3444 32.8477 9.15766V9.10457C32.8477 7.91779 33.0819 6.74263 33.5372 5.64619C33.9923 4.54974 34.6595 3.55349 35.5005 2.71431C36.3416 1.87513 37.3402 1.20946 38.4391 0.755297C39.538 0.301136 40.7159 0.0673828 41.9053 0.0673828H43.7951V18.1949Z" fill="#CC292B"/>
<path d="M8.34376 0.0673828H6.96191V13.1541H8.34376C10.0825 13.1532 11.7498 12.4634 12.9789 11.2364C14.2081 10.0094 14.8985 8.34556 14.8985 6.61075C14.8985 4.87593 14.2081 3.21212 12.9789 1.98509C11.7498 0.758075 10.0825 0.0682874 8.34376 0.0673828Z" fill="#30448B"/>
<path d="M14.3867 18.0862L22.7871 0.0671387L31.6656 18.0862H14.3867Z" fill="#CC292B"/>
<path d="M16.7948 12.9216L14.3867 18.0864H31.6656L29.1629 12.9216H16.7948Z" fill="#30448B"/>
<path d="M58.3115 18.1945V0.0671387H70.9724L58.3115 18.1945Z" fill="#CC292B"/>
<path d="M70.9724 0.0671387V18.1945H58.3115L70.9724 0.0671387Z" fill="#30448B"/>
<path d="M6.96172 0H0.970703V18.0864H6.96172V0Z" fill="#CC292B"/>
</svg>
